<?xml version="1.0" encoding="UTF-8" standalone="no"?>
<!-- Created with Inkscape (http://www.inkscape.org/) -->

<svg
   xmlns:dc="http://purl.org/dc/elements/1.1/"
   xmlns:cc="http://creativecommons.org/ns#"
   xmlns:rdf="http://www.w3.org/1999/02/22-rdf-syntax-ns#"
   xmlns:svg="http://www.w3.org/2000/svg"
   xmlns="http://www.w3.org/2000/svg"
   xmlns:xlink="http://www.w3.org/1999/xlink"
   xmlns:sodipodi="http://sodipodi.sourceforge.net/DTD/sodipodi-0.dtd"
   xmlns:inkscape="http://www.inkscape.org/namespaces/inkscape"
   width="533.33331"
   height="533.33331"
   viewBox="0 0 500.00001 500.00001"
   id="svg2"
   version="1.1"
   inkscape:version="0.92.2 5c3e80d, 2017-08-06"
   sodipodi:docname="buttons.svg">
  <defs
     id="defs4">
    <linearGradient
       inkscape:collect="always"
       id="linearGradient1090">
      <stop
         style="stop-color:#ffffff;stop-opacity:1;"
         offset="0"
         id="stop1086" />
      <stop
         style="stop-color:#ffffff;stop-opacity:0;"
         offset="1"
         id="stop1088" />
    </linearGradient>
    <linearGradient
       inkscape:collect="always"
       id="linearGradient4666">
      <stop
         style="stop-color:#ffffff;stop-opacity:1"
         offset="0"
         id="stop4662" />
      <stop
         id="stop4676"
         offset="0.42713729"
         style="stop-color:#ffffff;stop-opacity:0.79607844" />
      <stop
         style="stop-color:#ffffff;stop-opacity:0.4627451"
         offset="1"
         id="stop4664" />
    </linearGradient>
    <linearGradient
       inkscape:collect="always"
       id="linearGradient4659">
      <stop
         style="stop-color:#ffffff;stop-opacity:1"
         offset="0"
         id="stop4655" />
      <stop
         style="stop-color:#ffffff;stop-opacity:0.60679615"
         offset="1"
         id="stop4657" />
    </linearGradient>
    <linearGradient
       inkscape:collect="always"
       id="linearGradient4313">
      <stop
         style="stop-color:#005497;stop-opacity:0.27272728"
         offset="0"
         id="stop4315" />
      <stop
         style="stop-color:#005497;stop-opacity:0.06818182"
         offset="1"
         id="stop4317" />
    </linearGradient>
    <filter
       inkscape:collect="always"
       style="color-interpolation-filters:sRGB"
       id="filter4309"
       x="-0.040038537"
       width="1.0800771"
       y="-0.095373832"
       height="1.1907477">
      <feGaussianBlur
         inkscape:collect="always"
         stdDeviation="3.6669538"
         id="feGaussianBlur4311" />
    </filter>
    <linearGradient
       inkscape:collect="always"
       xlink:href="#linearGradient4313"
       id="linearGradient4319"
       x1="-441.97687"
       y1="1012.8427"
       x2="-441.97687"
       y2="1072.3632"
       gradientUnits="userSpaceOnUse"
       gradientTransform="translate(1.8037136,-10.091205)" />
    <linearGradient
       inkscape:collect="always"
       xlink:href="#linearGradient4313"
       id="linearGradient4285"
       gradientUnits="userSpaceOnUse"
       gradientTransform="translate(1.8037136,-10.091205)"
       x1="-441.97687"
       y1="1012.8427"
       x2="-441.97687"
       y2="1072.3632" />
    <linearGradient
       inkscape:collect="always"
       xlink:href="#linearGradient4313"
       id="linearGradient4246"
       gradientUnits="userSpaceOnUse"
       gradientTransform="translate(1.8037136,-10.091205)"
       x1="-441.97687"
       y1="1012.8427"
       x2="-441.97687"
       y2="1072.3632" />
    <linearGradient
       inkscape:collect="always"
       xlink:href="#linearGradient4313"
       id="linearGradient4263"
       gradientUnits="userSpaceOnUse"
       gradientTransform="translate(1.8037136,-10.091205)"
       x1="-441.97687"
       y1="1012.8427"
       x2="-441.97687"
       y2="1072.3632" />
    <linearGradient
       inkscape:collect="always"
       xlink:href="#linearGradient4313"
       id="linearGradient4279"
       gradientUnits="userSpaceOnUse"
       gradientTransform="translate(1.8037136,-10.091205)"
       x1="-441.97687"
       y1="1012.8427"
       x2="-441.97687"
       y2="1072.3632" />
    <radialGradient
       inkscape:collect="always"
       xlink:href="#linearGradient4659"
       id="radialGradient4661"
       cx="59.769882"
       cy="811.46765"
       fx="59.769882"
       fy="811.46765"
       r="6.9998441"
       gradientUnits="userSpaceOnUse"
       gradientTransform="matrix(0.43721182,3.7482347e-7,-3.6476786e-7,0.42548248,33.63808,466.20236)" />
    <radialGradient
       inkscape:collect="always"
       xlink:href="#linearGradient4666"
       id="radialGradient4670"
       cx="182.82529"
       cy="803.41022"
       fx="182.82529"
       fy="803.41022"
       r="17.166115"
       gradientTransform="matrix(1.3089405,0.20493947,-0.2507187,1.6013308,145.62096,-521.43256)"
       gradientUnits="userSpaceOnUse" />
    <linearGradient
       inkscape:collect="always"
       xlink:href="#linearGradient1090"
       id="linearGradient1092"
       x1="82.255859"
       y1="685.7854"
       x2="82.255859"
       y2="690.52289"
       gradientUnits="userSpaceOnUse"
       gradientTransform="translate(-1.5466308e-7,0.21991387)" />
  </defs>
  <sodipodi:namedview
     id="base"
     pagecolor="#1a1a1a"
     bordercolor="#00aad4"
     borderopacity="1"
     inkscape:pageopacity="0"
     inkscape:pageshadow="2"
     inkscape:zoom="1"
     inkscape:cx="232.7201"
     inkscape:cy="408.36092"
     inkscape:document-units="px"
     inkscape:current-layer="layer1"
     showgrid="false"
     inkscape:window-width="1366"
     inkscape:window-height="739"
     inkscape:window-x="0"
     inkscape:window-y="0"
     inkscape:window-maximized="1"
     showguides="true"
     inkscape:guide-bbox="true"
     units="px"
     inkscape:lockguides="true">
    <inkscape:grid
       type="xygrid"
       id="grid4248"
       originx="0"
       originy="0"
       spacingx="1"
       spacingy="1" />
  </sodipodi:namedview>
  <metadata
     id="metadata7">
    <rdf:RDF>
      <cc:Work
         rdf:about="">
        <dc:format>image/svg+xml</dc:format>
        <dc:type
           rdf:resource="http://purl.org/dc/dcmitype/StillImage" />
        <dc:title />
      </cc:Work>
    </rdf:RDF>
  </metadata>
  <g
     inkscape:label="Layer 1"
     inkscape:groupmode="layer"
     id="layer1"
     transform="translate(0,-552.36216)">
    <g
       id="button_up"
       inkscape:export-filename="/home/lonami/button_up.png"
       inkscape:export-xdpi="90"
       inkscape:export-ydpi="90">
      <rect
         inkscape:export-ydpi="90"
         inkscape:export-xdpi="90"
         inkscape:export-filename="/home/lonami/button_up"
         rx="24"
         y="988.36218"
         x="0"
         height="64"
         width="64"
         id="rect4250"
         style="opacity:1;fill:#ffffff;fill-opacity:1;stroke:none;stroke-width:0.1;stroke-linecap:round;stroke-linejoin:miter;stroke-miterlimit:4;stroke-dasharray:none;stroke-dashoffset:0;stroke-opacity:1"
         ry="24" />
      <path
         inkscape:export-ydpi="90"
         inkscape:export-xdpi="90"
         inkscape:export-filename="/home/lonami/button_up"
         style="opacity:1;fill:#cccccc;fill-opacity:1;stroke:none;stroke-width:0.1;stroke-linecap:round;stroke-linejoin:miter;stroke-miterlimit:4;stroke-dasharray:none;stroke-dashoffset:0;stroke-opacity:1"
         d="m 4.5449252,998.2813 c -2.8585,3.9506 -4.5449200236115,8.8096 -4.5449200236115,14.08 v 16 c 0,13.296 10.7039998236115,24 23.9999998236115,24 h 16 c 4.9535,0 9.54683,-1.4871 13.36133,-4.039 h -27.91016 c -11.58215,0 -20.9062498,-9.3241 -20.9062498,-20.9063 z"
         id="path4252"
         inkscape:connector-curvature="0" />
    </g>
    <g
       id="play"
       inkscape:export-xdpi="90"
       inkscape:export-ydpi="90">
      <path
         transform="matrix(0.9916559,0,0,0.9110806,-19.58445,98.309378)"
         inkscape:transform-center-x="-9.9921956"
         d="m 225.46576,1012.0431 c 0,6.2829 -55.01644,38.0467 -60.45763,34.9052 -5.44118,-3.1415 -5.44118,-66.66897 0,-69.81044 5.44119,-3.14147 60.45763,28.62224 60.45763,34.90524 z"
         inkscape:randomized="0"
         inkscape:rounded="0.09"
         inkscape:flatsided="true"
         sodipodi:arg2="1.0471976"
         sodipodi:arg1="0"
         sodipodi:r2="20.152542"
         sodipodi:r1="40.305084"
         sodipodi:cy="1012.0431"
         sodipodi:cx="185.16068"
         sodipodi:sides="3"
         id="path4172"
         style="opacity:1;fill:#ffffff;fill-opacity:1;stroke:none;stroke-width:0.1;stroke-linecap:round;stroke-linejoin:miter;stroke-miterlimit:4;stroke-dasharray:none;stroke-dashoffset:0;stroke-opacity:1"
         sodipodi:type="star" />
    </g>
    <g
       id="button_down"
       inkscape:export-xdpi="90"
       inkscape:export-ydpi="90">
      <rect
         ry="0"
         rx="33.032257"
         y="988.36218"
         x="70"
         height="64"
         width="64"
         id="rect4175"
         style="opacity:1;fill:#000000;fill-opacity:0;stroke:none;stroke-width:0.1;stroke-linecap:round;stroke-linejoin:miter;stroke-miterlimit:4;stroke-dasharray:none;stroke-dashoffset:0;stroke-opacity:1" />
      <rect
         ry="24"
         style="opacity:1;fill:#ffffff;fill-opacity:1;stroke:none;stroke-width:0.1;stroke-linecap:round;stroke-linejoin:miter;stroke-miterlimit:4;stroke-dasharray:none;stroke-dashoffset:0;stroke-opacity:1"
         id="rect4167"
         width="60"
         height="60"
         x="70.000008"
         y="992.36108"
         rx="24" />
      <path
         style="opacity:1;fill:#cccccc;fill-opacity:1;stroke:none;stroke-width:0.1;stroke-linecap:round;stroke-linejoin:miter;stroke-miterlimit:4;stroke-dasharray:none;stroke-dashoffset:0;stroke-opacity:1"
         d="m 72.545858,1005.5749 c -1.625691,3.2403 -2.544922,6.6807 -2.544922,10.5661 v 12.221 c 0,0.8012 0.04124,1.5925 0.117187,2.3731 0.0028,0.029 0.003,0.058 0.0059,0.086 0.04086,0.4051 0.09176,0.8064 0.152344,1.2051 0.181472,1.1943 0.451205,2.3596 0.800782,3.4883 0.116525,0.3762 0.240786,0.7473 0.375,1.1152 0.134213,0.368 0.276328,0.7307 0.427734,1.0899 3.27e-4,7e-4 0.0016,0 0.002,0 0.151109,0.3584 0.310784,0.7134 0.478516,1.0625 0.08587,0.1788 0.179395,0.3531 0.269531,0.5293 0.08624,0.1686 0.167738,0.3397 0.257812,0.5059 0.184687,0.3409 0.377659,0.6752 0.578125,1.0058 0.200015,0.3299 0.407821,0.6536 0.623047,0.9727 0.430717,0.6387 0.890227,1.255 1.378906,1.8476 0.244167,0.2962 0.494061,0.5853 0.751954,0.8692 6.16e-4,7e-4 0.0013,0 0.002,0 0.257306,0.2832 0.522494,0.5596 0.792969,0.8301 0.271124,0.2711 0.548169,0.537 0.832031,0.7949 0.283862,0.2579 0.573037,0.5078 0.86914,0.752 0.06398,0.053 0.130772,0.1022 0.195313,0.1543 0.234205,0.1891 0.469543,0.3783 0.710937,0.5586 4.11e-4,3e-4 0.0015,-3e-4 0.002,0 0.127473,0.095 0.259247,0.1846 0.388672,0.2773 0.495311,0.3548 1.000756,0.6948 1.523438,1.0117 0.330602,0.2006 0.664947,0.3934 1.005859,0.5782 0.680239,0.3686 1.381297,0.705 2.09961,1.0078 0.359156,0.1514 0.721911,0.2935 1.089843,0.4277 1.104536,0.4031 2.24521,0.7277 3.419922,0.9668 1.146339,0.2334 2.322875,0.3845 3.523438,0.4492 0.02883,0 0.05708,0 0.08594,0.01 0.410833,0.021 0.824075,0.031 1.240235,0.031 h 12.624999 c 3.78261,0 6.72804,-0.8701 9.9043,-2.416 H 93.452293 c -11.58215,0 -20.90625,-9.324 -20.90625,-20.9062 z"
         id="path4169"
         inkscape:connector-curvature="0"
         sodipodi:nodetypes="cssscccccccccccccccscccccccsccccsscssc" />
    </g>
    <g
       id="star"
       inkscape:export-xdpi="90"
       inkscape:export-ydpi="90">
      <path
         transform="matrix(-0.38860999,-0.40779917,0.38860999,-0.40779917,-62.401355,1540.863)"
         inkscape:transform-center-y="-5.1017453"
         d="m 285.76376,1069.0719 c -4.30575,4.3057 -32.43037,-13.9896 -38.44465,-13.037 -6.01428,0.9526 -27.10883,27.0434 -32.53439,24.2789 -5.42556,-2.7644 3.28329,-35.1661 0.51883,-40.5916 -2.76446,-5.4256 -34.09689,-17.4252 -33.14432,-23.4395 0.95257,-6.0143 34.45956,-7.7443 38.76531,-12.0501 4.30575,-4.30572 6.0358,-37.81271 12.05008,-38.76528 6.01428,-0.95257 18.01388,30.37986 23.43944,33.14432 5.42556,2.76446 37.82722,-5.94439 40.59168,-0.51883 2.76446,5.42559 -23.32637,26.52009 -24.27894,32.53439 -0.95257,6.0143 17.34271,34.1389 13.03696,38.4447 z"
         inkscape:randomized="0"
         inkscape:rounded="0.15"
         inkscape:flatsided="false"
         sodipodi:arg2="1.4137167"
         sodipodi:arg1="0.78539816"
         sodipodi:r2="30.565502"
         sodipodi:r1="61.131004"
         sodipodi:cy="1025.8457"
         sodipodi:cx="242.53761"
         sodipodi:sides="5"
         id="path4164"
         style="opacity:1;fill:#ffffff;fill-opacity:1;stroke:none;stroke-width:0.1;stroke-linecap:round;stroke-linejoin:miter;stroke-miterlimit:4;stroke-dasharray:none;stroke-dashoffset:0;stroke-opacity:1"
         sodipodi:type="star" />
    </g>
    <g
       id="stats">
      <rect
         rx="4"
         y="1022.9093"
         x="280"
         height="29.452702"
         width="18.638437"
         id="rect4169"
         style="opacity:1;fill:#ffffff;fill-opacity:1;stroke:none;stroke-width:0.1;stroke-linecap:round;stroke-linejoin:miter;stroke-miterlimit:4;stroke-dasharray:none;stroke-dashoffset:0;stroke-opacity:1" />
      <rect
         style="opacity:1;fill:#ffffff;fill-opacity:1;stroke:none;stroke-width:0.1;stroke-linecap:round;stroke-linejoin:miter;stroke-miterlimit:4;stroke-dasharray:none;stroke-dashoffset:0;stroke-opacity:1"
         id="rect4171"
         width="18.638437"
         height="63.999702"
         x="302.68079"
         y="988.36224"
         rx="4" />
      <rect
         rx="4"
         y="1014.0891"
         x="325.36157"
         height="38.273212"
         width="18.638437"
         id="rect4173"
         style="opacity:1;fill:#ffffff;fill-opacity:1;stroke:none;stroke-width:0.1;stroke-linecap:round;stroke-linejoin:miter;stroke-miterlimit:4;stroke-dasharray:none;stroke-dashoffset:0;stroke-opacity:1" />
    </g>
    <g
       id="palette">
      <rect
         y="988.36218"
         x="350"
         height="64"
         width="64"
         id="rect4218"
         style="opacity:1;fill:none;fill-opacity:1;stroke:none;stroke-width:0.1;stroke-linecap:round;stroke-linejoin:miter;stroke-miterlimit:4;stroke-dasharray:none;stroke-dashoffset:0;stroke-opacity:1" />
      <path
         id="path4201"
         d="m 385.7831,992.96155 c -6.14613,-0.0457 -12.50923,1.87356 -17.75207,4.85779 -7.67639,4.36936 -14.77523,11.64966 -17.22474,20.13606 -1.69997,5.8896 -0.66797,13.0554 2.66969,18.1971 3.70118,5.7018 10.62238,9.2983 17.22472,10.9167 6.54225,1.6037 13.66591,0.1742 20.13611,-1.6992 6.56647,-1.9012 13.67221,-4.3351 18.19519,-9.4611 3.08109,-3.4918 4.4633,-8.4607 4.8523,-13.1012 0.39882,-4.7574 -0.17475,-9.9986 -2.66785,-14.0698 -4.27437,-6.9802 -11.46628,-13.06654 -19.40918,-15.0421 -1.95142,-0.48536 -3.97545,-0.71904 -6.02417,-0.73425 z m 2.74841,7.64835 a 6.429068,6.429068 0 0 1 6.43067,6.4288 6.429068,6.429068 0 0 1 -6.43067,6.4288 6.429068,6.429068 0 0 1 -6.42883,-6.4288 6.429068,6.429068 0 0 1 6.42883,-6.4288 z m -17.10388,4.4879 a 5.5799455,5.5799455 0 0 1 5.58106,5.581 5.5799455,5.5799455 0 0 1 -5.58106,5.5793 5.5799455,5.5799455 0 0 1 -5.57922,-5.5793 5.5799455,5.5799455 0 0 1 5.57922,-5.581 z m -7.27661,15.4065 a 5.8225522,5.8225522 0 0 1 5.82092,5.8227 5.8225522,5.8225522 0 0 1 -5.82092,5.8209 5.8225522,5.8225522 0 0 1 -5.82275,-5.8209 5.8225522,5.8225522 0 0 1 5.82275,-5.8227 z m 34.46778,2.558 a 7.156887,9.5829493 65.405508 0 1 6.51122,3.6419 7.156887,9.5829493 65.405508 0 1 -5.73486,10.4975 7.156887,9.5829493 65.405508 0 1 -11.69128,-2.5196 7.156887,9.5829493 65.405508 0 1 5.73486,-10.4974 7.156887,9.5829493 65.405508 0 1 4.54102,-1.1151 7.156887,9.5829493 65.405508 0 1 0.63904,-0.01 z"
         style="fill:#ffffff;fill-opacity:1;fill-rule:evenodd;stroke:none;stroke-width:0.68619436px;stroke-linecap:butt;stroke-linejoin:miter;stroke-opacity:1"
         inkscape:connector-curvature="0" />
    </g>
    <g
       id="basic"
       inkscape:export-xdpi="90"
       inkscape:export-ydpi="90"
       transform="matrix(3.0000588,0,0,3.0000588,0,-2314.7845)">
      <rect
         ry="0"
         y="966.36218"
         x="0"
         height="16"
         width="16"
         id="rect4178"
         style="opacity:1;fill:none;fill-opacity:1;stroke:none;stroke-width:0.1;stroke-linecap:round;stroke-linejoin:miter;stroke-miterlimit:4;stroke-dasharray:none;stroke-dashoffset:0;stroke-opacity:1" />
      <rect
         style="opacity:1;fill:#ffffff;fill-opacity:1;stroke:none;stroke-width:0.1;stroke-linecap:round;stroke-linejoin:miter;stroke-miterlimit:4;stroke-dasharray:none;stroke-dashoffset:0;stroke-opacity:1"
         id="rect4180"
         width="14"
         height="14"
         x="1"
         y="967.36224"
         ry="2" />
    </g>
    <text
       xml:space="preserve"
       style="font-style:normal;font-weight:normal;line-height:0%;font-family:sans-serif;letter-spacing:0px;word-spacing:0px;fill:#80ffff;fill-opacity:1;stroke:none;stroke-width:1px;stroke-linecap:butt;stroke-linejoin:miter;stroke-opacity:1"
       x="6.3477864"
       y="769.7121"
       id="text4186"><tspan
         sodipodi:role="line"
         id="tspan4188"
         x="6.3477864"
         y="769.7121"
         style="font-size:15.69341087px;line-height:1.25">buttons</tspan></text>
    <text
       xml:space="preserve"
       style="font-style:normal;font-weight:normal;line-height:0%;font-family:sans-serif;letter-spacing:0px;word-spacing:0px;fill:#80ffff;fill-opacity:1;stroke:none;stroke-width:1px;stroke-linecap:butt;stroke-linejoin:miter;stroke-opacity:1"
       x="7.3185968"
       y="578.15967"
       id="text4190"><tspan
         sodipodi:role="line"
         id="tspan4192"
         x="7.3185968"
         y="578.15967"
         style="font-size:15.69341087px;line-height:1.25">cells</tspan></text>
    <g
       id="g4261"
       transform="translate(167.59797,-248.90157)">
      <rect
         ry="31"
         y="906.68933"
         x="-669.75"
         height="360"
         width="360"
         id="rect4228"
         style="opacity:1;fill:#ffffff;fill-opacity:1;stroke:none;stroke-width:0.1;stroke-linecap:round;stroke-linejoin:miter;stroke-miterlimit:4;stroke-dasharray:none;stroke-dashoffset:0;stroke-opacity:1" />
      <g
         transform="matrix(1.3547235,0,0,1.3547235,160.26025,20.43346)"
         id="g4240">
        <path
           style="opacity:1;fill:url(#linearGradient4319);fill-opacity:1;stroke:none;stroke-width:0.1;stroke-linecap:round;stroke-linejoin:miter;stroke-miterlimit:4;stroke-dasharray:none;stroke-dashoffset:0;stroke-opacity:1;filter:url(#filter4309)"
           d="m -442.65137,1055.1932 c -5.37558,-4e-4 -10.75247,-0.4342 -14.87109,-1.3009 l -84.63672,-17.8104 c -1.65176,-0.3475 -2.95609,-0.7386 -3.94531,-1.154 -3.71453,-1.1985 -6.62987,-3.2201 -7.13477,-4.9803 -0.41372,-0.4331 -0.64391,-0.9429 -0.63281,-1.5313 l 0.69922,-37.06 c 0.054,-2.86135 5.52976,-6.35712 12.27734,-7.8371 l 89.12695,-19.54942 c 1.48558,-0.32573 2.89873,-0.51836 4.20899,-0.60182 3.99244,-0.574 8.30073,-0.65058 11.66992,0.11216 l 88.56445,20.04642 c 6.90343,1.56259 12.50464,5.19835 12.5586,8.15116 l 0.69922,38.2432 c 0.0315,1.7289 -1.90581,3.6797 -5.14063,5.0001 -0.19992,0.086 -0.41416,0.1725 -0.64258,0.2558 -0.016,0 -0.0327,0.022 -0.0488,0.022 -0.90767,0.3313 -2.01326,0.6462 -3.36329,0.9301 l -84.51953,17.7707 c -4.11948,0.8661 -9.49355,1.2992 -14.86914,1.2988 z"
           id="path4238"
           inkscape:connector-curvature="0"
           transform="matrix(0.84718319,0,0,1.0213689,-103.68658,-169.01715)" />
        <path
           style="opacity:1;fill:#00aad4;fill-opacity:1;stroke:none;stroke-width:0.1;stroke-linecap:round;stroke-linejoin:miter;stroke-miterlimit:4;stroke-dasharray:none;stroke-dashoffset:0;stroke-opacity:1"
           d="m -397.75084,715.67331 -163.78868,1.15534 c -6.94231,0.049 -14.10792,13.10451 -10.71655,19.16231 l 80.79533,144.31978 c 3.39136,6.05781 12.65442,10.6298 18.54535,6.9562 l 75.57536,-47.12863 c 5.89092,-3.67357 10.6705,-12.21995 10.71655,-19.16229 l 0.59631,-89.90907 c 0.046,-6.94233 -4.78135,-15.44261 -11.72367,-15.39364 z"
           id="rect4234"
           inkscape:connector-curvature="0"
           sodipodi:nodetypes="sssssssss" />
        <rect
           style="opacity:1;fill:#00ccff;fill-opacity:1;stroke:none;stroke-width:0.1;stroke-linecap:round;stroke-linejoin:miter;stroke-miterlimit:4;stroke-dasharray:none;stroke-dashoffset:0;stroke-opacity:1"
           id="rect4232"
           width="113.15113"
           height="111.41566"
           x="-678.87305"
           y="1073.5972"
           ry="12.143711"
           transform="matrix(0.85586624,0.51719723,0.00684405,0.99997658,0,0)" />
        <rect
           style="opacity:1;fill:#55ddff;fill-opacity:1;stroke:none;stroke-width:0.1;stroke-linecap:round;stroke-linejoin:miter;stroke-miterlimit:4;stroke-dasharray:none;stroke-dashoffset:0;stroke-opacity:1"
           id="rect4230"
           width="112.68221"
           height="112.81577"
           x="388.7005"
           y="942.09778"
           ry="14.66605"
           transform="matrix(0.86530322,0.50124878,-0.86512318,0.50155946,0,0)" />
      </g>
    </g>
    <g
       transform="matrix(0.13333333,0,0,0.13333333,-518.18594,1014.0868)"
       id="ic_launcher">
      <rect
         style="opacity:1;fill:#ffffff;fill-opacity:1;stroke:none;stroke-width:0.1;stroke-linecap:round;stroke-linejoin:miter;stroke-miterlimit:4;stroke-dasharray:none;stroke-dashoffset:0;stroke-opacity:1"
         id="rect4273"
         width="360"
         height="360"
         x="-669.75"
         y="906.68933"
         ry="31" />
      <g
         id="g4275"
         transform="matrix(1.3547235,0,0,1.3547235,160.26025,20.43346)">
        <path
           transform="matrix(0.84718319,0,0,1.0213689,-103.68658,-169.01715)"
           inkscape:connector-curvature="0"
           id="path4277"
           d="m -442.65137,1055.1932 c -5.37558,-4e-4 -10.75247,-0.4342 -14.87109,-1.3009 l -84.63672,-17.8104 c -1.65176,-0.3475 -2.95609,-0.7386 -3.94531,-1.154 -3.71453,-1.1985 -6.62987,-3.2201 -7.13477,-4.9803 -0.41372,-0.4331 -0.64391,-0.9429 -0.63281,-1.5313 l 0.69922,-37.06 c 0.054,-2.86135 5.52976,-6.35712 12.27734,-7.8371 l 89.12695,-19.54942 c 1.48558,-0.32573 2.89873,-0.51836 4.20899,-0.60182 3.99244,-0.574 8.30073,-0.65058 11.66992,0.11216 l 88.56445,20.04642 c 6.90343,1.56259 12.50464,5.19835 12.5586,8.15116 l 0.69922,38.2432 c 0.0315,1.7289 -1.90581,3.6797 -5.14063,5.0001 -0.19992,0.086 -0.41416,0.1725 -0.64258,0.2558 -0.016,0 -0.0327,0.022 -0.0488,0.022 -0.90767,0.3313 -2.01326,0.6462 -3.36329,0.9301 l -84.51953,17.7707 c -4.11948,0.8661 -9.49355,1.2992 -14.86914,1.2988 z"
           style="opacity:1;fill:url(#linearGradient4285);fill-opacity:1;stroke:none;stroke-width:0.1;stroke-linecap:round;stroke-linejoin:miter;stroke-miterlimit:4;stroke-dasharray:none;stroke-dashoffset:0;stroke-opacity:1;filter:url(#filter4309)" />
        <path
           sodipodi:nodetypes="sssssssss"
           inkscape:connector-curvature="0"
           id="path4279"
           d="m -397.75084,715.67331 -163.78868,1.15534 c -6.94231,0.049 -14.10792,13.10451 -10.71655,19.16231 l 80.79533,144.31978 c 3.39136,6.05781 12.65442,10.6298 18.54535,6.9562 l 75.57536,-47.12863 c 5.89092,-3.67357 10.6705,-12.21995 10.71655,-19.16229 l 0.59631,-89.90907 c 0.046,-6.94233 -4.78135,-15.44261 -11.72367,-15.39364 z"
           style="opacity:1;fill:#00aad4;fill-opacity:1;stroke:none;stroke-width:0.1;stroke-linecap:round;stroke-linejoin:miter;stroke-miterlimit:4;stroke-dasharray:none;stroke-dashoffset:0;stroke-opacity:1" />
        <rect
           transform="matrix(0.85586624,0.51719723,0.00684405,0.99997658,0,0)"
           ry="12.143711"
           y="1073.5972"
           x="-678.87305"
           height="111.41566"
           width="113.15113"
           id="rect4281"
           style="opacity:1;fill:#00ccff;fill-opacity:1;stroke:none;stroke-width:0.1;stroke-linecap:round;stroke-linejoin:miter;stroke-miterlimit:4;stroke-dasharray:none;stroke-dashoffset:0;stroke-opacity:1" />
        <rect
           transform="matrix(0.86530322,0.50124878,-0.86512318,0.50155946,0,0)"
           ry="14.66605"
           y="942.09778"
           x="388.7005"
           height="112.81577"
           width="112.68221"
           id="rect4283"
           style="opacity:1;fill:#55ddff;fill-opacity:1;stroke:none;stroke-width:0.1;stroke-linecap:round;stroke-linejoin:miter;stroke-miterlimit:4;stroke-dasharray:none;stroke-dashoffset:0;stroke-opacity:1" />
      </g>
    </g>
    <g
       id="icon128"
       transform="matrix(0.35555556,0,0,0.35555556,-265.3526,764.60026)">
      <rect
         ry="31"
         y="906.68933"
         x="-669.75"
         height="360"
         width="360"
         id="rect4233"
         style="opacity:1;fill:#ffffff;fill-opacity:1;stroke:none;stroke-width:0.1;stroke-linecap:round;stroke-linejoin:miter;stroke-miterlimit:4;stroke-dasharray:none;stroke-dashoffset:0;stroke-opacity:1" />
      <g
         transform="matrix(1.3547235,0,0,1.3547235,160.26025,20.43346)"
         id="g4235">
        <path
           style="opacity:1;fill:url(#linearGradient4246);fill-opacity:1;stroke:none;stroke-width:0.1;stroke-linecap:round;stroke-linejoin:miter;stroke-miterlimit:4;stroke-dasharray:none;stroke-dashoffset:0;stroke-opacity:1;filter:url(#filter4309)"
           d="m -442.65137,1055.1932 c -5.37558,-4e-4 -10.75247,-0.4342 -14.87109,-1.3009 l -84.63672,-17.8104 c -1.65176,-0.3475 -2.95609,-0.7386 -3.94531,-1.154 -3.71453,-1.1985 -6.62987,-3.2201 -7.13477,-4.9803 -0.41372,-0.4331 -0.64391,-0.9429 -0.63281,-1.5313 l 0.69922,-37.06 c 0.054,-2.86135 5.52976,-6.35712 12.27734,-7.8371 l 89.12695,-19.54942 c 1.48558,-0.32573 2.89873,-0.51836 4.20899,-0.60182 3.99244,-0.574 8.30073,-0.65058 11.66992,0.11216 l 88.56445,20.04642 c 6.90343,1.56259 12.50464,5.19835 12.5586,8.15116 l 0.69922,38.2432 c 0.0315,1.7289 -1.90581,3.6797 -5.14063,5.0001 -0.19992,0.086 -0.41416,0.1725 -0.64258,0.2558 -0.016,0 -0.0327,0.022 -0.0488,0.022 -0.90767,0.3313 -2.01326,0.6462 -3.36329,0.9301 l -84.51953,17.7707 c -4.11948,0.8661 -9.49355,1.2992 -14.86914,1.2988 z"
           id="path4237"
           inkscape:connector-curvature="0"
           transform="matrix(0.84718319,0,0,1.0213689,-103.68658,-169.01715)" />
        <path
           style="opacity:1;fill:#00aad4;fill-opacity:1;stroke:none;stroke-width:0.1;stroke-linecap:round;stroke-linejoin:miter;stroke-miterlimit:4;stroke-dasharray:none;stroke-dashoffset:0;stroke-opacity:1"
           d="m -397.75084,715.67331 -163.78868,1.15534 c -6.94231,0.049 -14.10792,13.10451 -10.71655,19.16231 l 80.79533,144.31978 c 3.39136,6.05781 12.65442,10.6298 18.54535,6.9562 l 75.57536,-47.12863 c 5.89092,-3.67357 10.6705,-12.21995 10.71655,-19.16229 l 0.59631,-89.90907 c 0.046,-6.94233 -4.78135,-15.44261 -11.72367,-15.39364 z"
           id="path4239"
           inkscape:connector-curvature="0"
           sodipodi:nodetypes="sssssssss" />
        <rect
           style="opacity:1;fill:#00ccff;fill-opacity:1;stroke:none;stroke-width:0.1;stroke-linecap:round;stroke-linejoin:miter;stroke-miterlimit:4;stroke-dasharray:none;stroke-dashoffset:0;stroke-opacity:1"
           id="rect4242"
           width="113.15113"
           height="111.41566"
           x="-678.87305"
           y="1073.5972"
           ry="12.143711"
           transform="matrix(0.85586624,0.51719723,0.00684405,0.99997658,0,0)" />
        <rect
           style="opacity:1;fill:#55ddff;fill-opacity:1;stroke:none;stroke-width:0.1;stroke-linecap:round;stroke-linejoin:miter;stroke-miterlimit:4;stroke-dasharray:none;stroke-dashoffset:0;stroke-opacity:1"
           id="rect4244"
           width="112.68221"
           height="112.81577"
           x="388.7005"
           y="942.09778"
           ry="14.66605"
           transform="matrix(0.86530322,0.50124878,-0.86512318,0.50155946,0,0)" />
      </g>
    </g>
    <g
       transform="matrix(0.08888889,0,0,0.08888889,-303.52976,1086.4552)"
       id="icon32">
      <rect
         style="opacity:1;fill:#ffffff;fill-opacity:1;stroke:none;stroke-width:0.1;stroke-linecap:round;stroke-linejoin:miter;stroke-miterlimit:4;stroke-dasharray:none;stroke-dashoffset:0;stroke-opacity:1"
         id="rect4251"
         width="360"
         height="360"
         x="-669.75"
         y="906.68933"
         ry="31" />
      <g
         id="g4253"
         transform="matrix(1.3547235,0,0,1.3547235,160.26025,20.43346)">
        <path
           transform="matrix(0.84718319,0,0,1.0213689,-103.68658,-169.01715)"
           inkscape:connector-curvature="0"
           id="path4255"
           d="m -442.65137,1055.1932 c -5.37558,-4e-4 -10.75247,-0.4342 -14.87109,-1.3009 l -84.63672,-17.8104 c -1.65176,-0.3475 -2.95609,-0.7386 -3.94531,-1.154 -3.71453,-1.1985 -6.62987,-3.2201 -7.13477,-4.9803 -0.41372,-0.4331 -0.64391,-0.9429 -0.63281,-1.5313 l 0.69922,-37.06 c 0.054,-2.86135 5.52976,-6.35712 12.27734,-7.8371 l 89.12695,-19.54942 c 1.48558,-0.32573 2.89873,-0.51836 4.20899,-0.60182 3.99244,-0.574 8.30073,-0.65058 11.66992,0.11216 l 88.56445,20.04642 c 6.90343,1.56259 12.50464,5.19835 12.5586,8.15116 l 0.69922,38.2432 c 0.0315,1.7289 -1.90581,3.6797 -5.14063,5.0001 -0.19992,0.086 -0.41416,0.1725 -0.64258,0.2558 -0.016,0 -0.0327,0.022 -0.0488,0.022 -0.90767,0.3313 -2.01326,0.6462 -3.36329,0.9301 l -84.51953,17.7707 c -4.11948,0.8661 -9.49355,1.2992 -14.86914,1.2988 z"
           style="opacity:1;fill:url(#linearGradient4263);fill-opacity:1;stroke:none;stroke-width:0.1;stroke-linecap:round;stroke-linejoin:miter;stroke-miterlimit:4;stroke-dasharray:none;stroke-dashoffset:0;stroke-opacity:1;filter:url(#filter4309)" />
        <path
           sodipodi:nodetypes="sssssssss"
           inkscape:connector-curvature="0"
           id="path4257"
           d="m -397.75084,715.67331 -163.78868,1.15534 c -6.94231,0.049 -14.10792,13.10451 -10.71655,19.16231 l 80.79533,144.31978 c 3.39136,6.05781 12.65442,10.6298 18.54535,6.9562 l 75.57536,-47.12863 c 5.89092,-3.67357 10.6705,-12.21995 10.71655,-19.16229 l 0.59631,-89.90907 c 0.046,-6.94233 -4.78135,-15.44261 -11.72367,-15.39364 z"
           style="opacity:1;fill:#00aad4;fill-opacity:1;stroke:none;stroke-width:0.1;stroke-linecap:round;stroke-linejoin:miter;stroke-miterlimit:4;stroke-dasharray:none;stroke-dashoffset:0;stroke-opacity:1" />
        <rect
           transform="matrix(0.85586624,0.51719723,0.00684405,0.99997658,0,0)"
           ry="12.143711"
           y="1073.5972"
           x="-678.87305"
           height="111.41566"
           width="113.15113"
           id="rect4259"
           style="opacity:1;fill:#00ccff;fill-opacity:1;stroke:none;stroke-width:0.1;stroke-linecap:round;stroke-linejoin:miter;stroke-miterlimit:4;stroke-dasharray:none;stroke-dashoffset:0;stroke-opacity:1" />
        <rect
           transform="matrix(0.86530322,0.50124878,-0.86512318,0.50155946,0,0)"
           ry="14.66605"
           y="942.09778"
           x="388.7005"
           height="112.81577"
           width="112.68221"
           id="rect4261"
           style="opacity:1;fill:#55ddff;fill-opacity:1;stroke:none;stroke-width:0.1;stroke-linecap:round;stroke-linejoin:miter;stroke-miterlimit:4;stroke-dasharray:none;stroke-dashoffset:0;stroke-opacity:1" />
      </g>
    </g>
    <g
       id="icon16"
       transform="matrix(0.04444444,0,0,0.04444444,-281.02436,1140.6311)">
      <rect
         ry="31"
         y="906.68933"
         x="-669.75"
         height="360"
         width="360"
         id="rect4267"
         style="opacity:1;fill:#ffffff;fill-opacity:1;stroke:none;stroke-width:0.1;stroke-linecap:round;stroke-linejoin:miter;stroke-miterlimit:4;stroke-dasharray:none;stroke-dashoffset:0;stroke-opacity:1" />
      <g
         transform="matrix(1.3547235,0,0,1.3547235,160.26025,20.43346)"
         id="g4269">
        <path
           style="opacity:1;fill:url(#linearGradient4279);fill-opacity:1;stroke:none;stroke-width:0.1;stroke-linecap:round;stroke-linejoin:miter;stroke-miterlimit:4;stroke-dasharray:none;stroke-dashoffset:0;stroke-opacity:1;filter:url(#filter4309)"
           d="m -442.65137,1055.1932 c -5.37558,-4e-4 -10.75247,-0.4342 -14.87109,-1.3009 l -84.63672,-17.8104 c -1.65176,-0.3475 -2.95609,-0.7386 -3.94531,-1.154 -3.71453,-1.1985 -6.62987,-3.2201 -7.13477,-4.9803 -0.41372,-0.4331 -0.64391,-0.9429 -0.63281,-1.5313 l 0.69922,-37.06 c 0.054,-2.86135 5.52976,-6.35712 12.27734,-7.8371 l 89.12695,-19.54942 c 1.48558,-0.32573 2.89873,-0.51836 4.20899,-0.60182 3.99244,-0.574 8.30073,-0.65058 11.66992,0.11216 l 88.56445,20.04642 c 6.90343,1.56259 12.50464,5.19835 12.5586,8.15116 l 0.69922,38.2432 c 0.0315,1.7289 -1.90581,3.6797 -5.14063,5.0001 -0.19992,0.086 -0.41416,0.1725 -0.64258,0.2558 -0.016,0 -0.0327,0.022 -0.0488,0.022 -0.90767,0.3313 -2.01326,0.6462 -3.36329,0.9301 l -84.51953,17.7707 c -4.11948,0.8661 -9.49355,1.2992 -14.86914,1.2988 z"
           id="path4271"
           inkscape:connector-curvature="0"
           transform="matrix(0.84718319,0,0,1.0213689,-103.68658,-169.01715)" />
        <path
           style="opacity:1;fill:#00aad4;fill-opacity:1;stroke:none;stroke-width:0.1;stroke-linecap:round;stroke-linejoin:miter;stroke-miterlimit:4;stroke-dasharray:none;stroke-dashoffset:0;stroke-opacity:1"
           d="m -397.75084,715.67331 -163.78868,1.15534 c -6.94231,0.049 -14.10792,13.10451 -10.71655,19.16231 l 80.79533,144.31978 c 3.39136,6.05781 12.65442,10.6298 18.54535,6.9562 l 75.57536,-47.12863 c 5.89092,-3.67357 10.6705,-12.21995 10.71655,-19.16229 l 0.59631,-89.90907 c 0.046,-6.94233 -4.78135,-15.44261 -11.72367,-15.39364 z"
           id="path4273"
           inkscape:connector-curvature="0"
           sodipodi:nodetypes="sssssssss" />
        <rect
           style="opacity:1;fill:#00ccff;fill-opacity:1;stroke:none;stroke-width:0.1;stroke-linecap:round;stroke-linejoin:miter;stroke-miterlimit:4;stroke-dasharray:none;stroke-dashoffset:0;stroke-opacity:1"
           id="rect4275"
           width="113.15113"
           height="111.41566"
           x="-678.87305"
           y="1073.5972"
           ry="12.143711"
           transform="matrix(0.85586624,0.51719723,0.00684405,0.99997658,0,0)" />
        <rect
           style="opacity:1;fill:#55ddff;fill-opacity:1;stroke:none;stroke-width:0.1;stroke-linecap:round;stroke-linejoin:miter;stroke-miterlimit:4;stroke-dasharray:none;stroke-dashoffset:0;stroke-opacity:1"
           id="rect4277"
           width="112.68221"
           height="112.81577"
           x="388.7005"
           y="942.09778"
           ry="14.66605"
           transform="matrix(0.86530322,0.50124878,-0.86512318,0.50155946,0,0)" />
      </g>
    </g>
    <g
       id="cup"
       inkscape:export-xdpi="90"
       inkscape:export-ydpi="90"
       transform="translate(73.02182,-380.83096)">
      <rect
         y="1083.1931"
         x="298.97818"
         height="128"
         width="128"
         id="rect4317"
         style="opacity:1;fill:none;fill-opacity:1;stroke:none;stroke-width:6;stroke-linecap:round;stroke-linejoin:round;stroke-miterlimit:4;stroke-dasharray:none;stroke-dashoffset:0;stroke-opacity:1" />
      <path
         id="path4249"
         d="m 325.38281,1094.75 a 38.304416,78.19166 0 0 0 38.30078,77.877 38.304416,78.19166 0 0 0 38.29688,-77.877 z m 38.29883,9.4316 c 2.00984,0 4.30369,10.8343 5.92969,12.0157 1.626,1.1813 12.63869,0.014 13.25976,1.9257 0.62108,1.9115 -8.97267,7.4421 -9.59375,9.3536 -0.62107,1.9114 3.88967,12.0256 2.26368,13.207 -1.626,1.1814 -9.84954,-6.2363 -11.85938,-6.2363 -2.00984,0 -10.23338,7.4177 -11.85937,6.2363 -1.626,-1.1814 2.8867,-11.2956 2.26562,-13.207 -0.62108,-1.9115 -10.21678,-7.4421 -9.5957,-9.3536 0.62107,-1.9114 11.63377,-0.7444 13.25976,-1.9257 1.626,-1.1814 3.91985,-12.0157 5.92969,-12.0157 z"
         style="opacity:1;fill:#ffffff;fill-opacity:1;stroke:none;stroke-width:0.1;stroke-linecap:round;stroke-linejoin:miter;stroke-miterlimit:4;stroke-dasharray:none;stroke-dashoffset:0;stroke-opacity:1"
         inkscape:connector-curvature="0" />
      <path
         sodipodi:nodetypes="ccsssc"
         inkscape:connector-curvature="0"
         id="path4256"
         d="m 316.80119,1106.067 h -13.65458 c 0,0 -0.80814,9.6196 0,14.3261 0.87063,5.0705 2.40371,10.1987 5.14844,14.5499 2.1956,3.4809 5.31872,6.428 8.72999,8.73 2.68814,1.8141 8.95381,3.8054 8.95381,3.8054"
         style="fill:none;fill-opacity:1;fill-rule:evenodd;stroke:#ffffff;stroke-width:7.59757042;stroke-linecap:round;stroke-linejoin:round;stroke-miterlimit:4;stroke-dasharray:none;stroke-opacity:1" />
      <path
         style="fill:none;fill-opacity:1;fill-rule:evenodd;stroke:#ffffff;stroke-width:7.59757042;stroke-linecap:round;stroke-linejoin:round;stroke-miterlimit:4;stroke-dasharray:none;stroke-opacity:1"
         d="m 409.15522,1106.067 h 13.65458 c 0,0 0.80814,9.6196 0,14.3261 -0.87063,5.0705 -2.40371,10.1987 -5.14844,14.5499 -2.1956,3.4809 -5.31872,6.428 -8.72999,8.73 -2.68814,1.8141 -8.95381,3.8054 -8.95381,3.8054"
         id="path4258"
         inkscape:connector-curvature="0"
         sodipodi:nodetypes="ccsssc" />
      <path
         id="path4262"
         d="m 365.15223,1186.8764 a 24.846857,37.382208 0 0 0 -18.66994,12.7591 h 37.32504 a 24.846857,37.382208 0 0 0 -18.6551,-12.7591 z"
         style="opacity:1;fill:#ffffff;fill-opacity:1;stroke:none;stroke-width:6;stroke-linecap:round;stroke-linejoin:round;stroke-miterlimit:4;stroke-dasharray:none;stroke-dashoffset:0;stroke-opacity:1"
         inkscape:connector-curvature="0" />
    </g>
    <g
       id="replay">
      <g
         style="fill:#ffffff;fill-opacity:1;stroke:#ffffff;stroke-opacity:1"
         transform="matrix(0.95665965,0,0,0.84593009,-1304.3757,355.96385)"
         id="g4596">
        <path
           style="fill:none;fill-opacity:1;fill-rule:evenodd;stroke:#ffffff;stroke-width:7;stroke-linecap:round;stroke-linejoin:miter;stroke-miterlimit:4;stroke-dasharray:none;stroke-opacity:1"
           d="m 1813.0218,800.6322 c -21.0216,-21.79184 9.3251,-59.56925 35.8249,-46.75911 23.91,11.55823 19.8769,41.61764 8.015,50.63229 -9.8747,7.50445 -17.7224,6.76155 -23.5106,6.55651"
           id="path4263"
           inkscape:connector-curvature="0"
           sodipodi:nodetypes="cssc" />
        <path
           sodipodi:type="star"
           style="opacity:1;fill:#ffffff;fill-opacity:1;stroke:none;stroke-width:30;stroke-linecap:round;stroke-linejoin:round;stroke-miterlimit:4;stroke-dasharray:none;stroke-dashoffset:0;stroke-opacity:1"
           id="path4565"
           sodipodi:sides="3"
           sodipodi:cx="-1827.2063"
           sodipodi:cy="811.53418"
           sodipodi:r1="8.6331072"
           sodipodi:r2="4.3165536"
           sodipodi:arg1="0"
           sodipodi:arg2="1.0471976"
           inkscape:flatsided="true"
           inkscape:rounded="0.08"
           inkscape:randomized="0"
           d="m -1818.5732,811.53418 c 0,1.19624 -11.9137,8.07461 -12.9497,7.47649 -1.0359,-0.59812 -1.0359,-14.35486 0,-14.95298 1.036,-0.59812 12.9497,6.28025 12.9497,7.47649 z"
           inkscape:transform-center-x="0.76927989"
           transform="matrix(-0.96505205,0,0,1.5925064,65.808298,-481.10437)" />
      </g>
    </g>
    <g
       id="share"
       transform="translate(-70.000027,-140.00004)">
      <ellipse
         ry="9.6579762"
         rx="12.032078"
         cy="1021.0906"
         cx="502.0321"
         id="path4600"
         style="opacity:1;fill:#ffffff;fill-opacity:1;stroke:none;stroke-width:7;stroke-linecap:round;stroke-linejoin:round;stroke-miterlimit:4;stroke-dasharray:none;stroke-dashoffset:0;stroke-opacity:1" />
      <ellipse
         ry="9.6579762"
         rx="12.032078"
         style="opacity:1;fill:#ffffff;fill-opacity:1;stroke:none;stroke-width:7;stroke-linecap:round;stroke-linejoin:round;stroke-miterlimit:4;stroke-dasharray:none;stroke-dashoffset:0;stroke-opacity:1"
         id="circle4602"
         cx="539.85034"
         cy="998.02014" />
      <ellipse
         ry="9.6579762"
         rx="12.032078"
         cy="1042.7042"
         cx="541.96796"
         id="circle4604"
         style="opacity:1;fill:#ffffff;fill-opacity:1;stroke:none;stroke-width:7;stroke-linecap:round;stroke-linejoin:round;stroke-miterlimit:4;stroke-dasharray:none;stroke-dashoffset:0;stroke-opacity:1" />
      <path
         sodipodi:nodetypes="csc"
         inkscape:connector-curvature="0"
         id="path4606"
         d="m 505.47911,1019.6329 c 0,0 9.60331,-9.7047 15.73236,-13.3566 3.98358,-2.3735 13.31168,-5.3427 13.31168,-5.3427"
         style="fill:none;fill-rule:evenodd;stroke:#ffffff;stroke-width:6.13334846px;stroke-linecap:butt;stroke-linejoin:miter;stroke-opacity:1" />
      <path
         sodipodi:nodetypes="csc"
         inkscape:connector-curvature="0"
         id="path4608"
         d="m 502.75585,1021.3328 c 0,0 15.71319,6.415 22.08595,11.1711 3.48589,2.6018 8.47101,9.2282 8.47101,9.2282"
         style="fill:none;fill-rule:evenodd;stroke:#ffffff;stroke-width:6.13334846px;stroke-linecap:butt;stroke-linejoin:miter;stroke-opacity:1" />
    </g>
    <g
       id="home"
       transform="translate(-140,-70.00004)">
      <path
         inkscape:connector-curvature="0"
         id="path4647"
         d="m 591.99899,988.36223 c -2.8135,0 -9.9857,5.49698 -16.8307,11.88817 v -2.79626 c 0,-0.98544 -0.8671,-1.77612 -1.9431,-1.77612 h -4.4807 c -1.076,0 -1.9429,0.79068 -1.9429,1.77612 v 11.28076 c -4.6479,5.17 -7.7121,9.6047 -6.5573,10.7359 0.5748,0.5631 2.9557,1.0175 6.4273,1.3767 -0.018,0.151 -0.05,0.2953 -0.05,0.449 v 24.5257 c 0,3.6236 3.1845,6.54 7.141,6.54 h 37.3963 c 3.9566,0 7.141,-2.9164 7.141,-6.54 v -24.5257 c 0,-0.1909 -0.044,-0.3713 -0.061,-0.5579 2.9341,-0.3423 4.996,-0.7591 5.5154,-1.2678 3.1756,-3.1108 -25.4034,-31.10857 -31.7547,-31.10857 z"
         style="opacity:1;fill:#ffffff;fill-opacity:1;stroke:none;stroke-width:7;stroke-linecap:round;stroke-linejoin:round;stroke-miterlimit:4;stroke-dasharray:none;stroke-dashoffset:0;stroke-opacity:1" />
    </g>
    <g
       id="sound_on"
       style="fill:#ffffff;fill-opacity:1"
       transform="translate(-280,-70.000018)">
      <path
         inkscape:connector-curvature="0"
         id="rect4268"
         d="m 663.23636,988.37781 c -3.89977,0.38658 -11.94557,7.90332 -18.18111,15.88689 h -7.28961 c -4.30262,0 -7.76564,3.4651 -7.76564,7.7678 v 15.848 c 0,4.3026 3.46302,7.7657 7.76564,7.7657 h 6.644 c 7.42372,9.7395 17.84775,19.1165 20.50611,16.1627 4.24529,-4.717 4.24529,-58.17674 0,-62.89377 -0.398,-0.44222 -0.96929,-0.60772 -1.67939,-0.53732 z"
         style="opacity:1;fill:#ffffff;fill-opacity:1;stroke:none;stroke-width:30;stroke-linecap:round;stroke-linejoin:round;stroke-miterlimit:4;stroke-dasharray:none;stroke-dashoffset:0;stroke-opacity:1" />
      <path
         inkscape:connector-curvature="0"
         id="path4272"
         d="m 679.64276,996.0996 v 0.0156 a 3.0037951,5.2768938 0 0 0 -2.93853,5.2718 3.0037951,5.2768938 0 0 0 2.93853,5.2718 v 0 a 8.114324,13.701269 0 0 1 8.10245,13.7013 8.114324,13.701269 0 0 1 -8.10245,13.7013 v 0.016 a 3.0037951,5.2768938 0 0 0 -2.93853,5.2718 3.0037951,5.2768938 0 0 0 2.93853,5.2717 v 0 a 14.369116,24.262663 0 0 0 14.35722,-24.2626 14.369116,24.262663 0 0 0 -14.35722,-24.26269 z"
         style="opacity:1;fill:#ffffff;fill-opacity:1;stroke:none;stroke-width:30;stroke-linecap:round;stroke-linejoin:round;stroke-miterlimit:4;stroke-dasharray:none;stroke-dashoffset:0;stroke-opacity:1" />
      <path
         style="opacity:1;fill:#ffffff;fill-opacity:1;stroke:none;stroke-width:30;stroke-linecap:round;stroke-linejoin:round;stroke-miterlimit:4;stroke-dasharray:none;stroke-dashoffset:0;stroke-opacity:1"
         d="m 676.61919,1009.9684 v 0.01 a 1.286778,2.2605374 0 0 0 -1.25882,2.2584 1.286778,2.2605374 0 0 0 1.25882,2.2583 v 10e-4 a 3.4760474,5.8694058 0 0 1 3.47094,5.8694 3.4760474,5.8694058 0 0 1 -3.47094,5.8694 v 0.01 a 1.286778,2.2605374 0 0 0 -1.25882,2.2584 1.286778,2.2605374 0 0 0 1.25882,2.2583 v 10e-4 a 6.1555008,10.393739 0 0 0 6.15039,-10.3937 6.1555008,10.393739 0 0 0 -6.15039,-10.3938 z"
         id="path4290"
         inkscape:connector-curvature="0" />
    </g>
    <g
       id="sound_off"
       transform="translate(-357.12497,7.2166511)">
      <path
         id="path4308"
         d="m 670.86719,911.15234 c -0.15964,-0.0125 -0.32834,-0.008 -0.50586,0.01 -3.06578,0.30391 -8.68781,5.03046 -13.98438,10.91016 l 18.82813,18.82812 c -0.104,-13.76194 -1.15108,-26.96451 -3.16406,-29.20117 -0.2985,-0.33167 -0.69493,-0.5093 -1.17383,-0.54688 z m -26.1543,15.9043 c -4.21908,0.0947 -7.58789,3.51703 -7.58789,7.75977 v 15.84765 c 0,4.3026 3.463,7.76563 7.76562,7.76563 h 6.64454 c 7.42372,9.7395 17.8475,19.11591 20.50586,16.16211 1.41471,-1.57191 2.34653,-8.59658 2.81836,-17.38672 z"
         style="opacity:1;fill:#ffffff;fill-opacity:1;stroke:none;stroke-width:30;stroke-linecap:round;stroke-linejoin:round;stroke-miterlimit:4;stroke-dasharray:none;stroke-dashoffset:0;stroke-opacity:1"
         inkscape:connector-curvature="0" />
      <path
         id="path4310"
         d="m 686.76758,918.87891 v 0.004 0.0156 a 3.0037951,5.2768938 0 0 0 -2.9375,5.27148 3.0037951,5.2768938 0 0 0 2.9375,5.27149 8.114324,13.701269 0 0 1 8.10351,13.70117 8.114324,13.701269 0 0 1 -4.8789,12.54687 l 6.01562,6.01367 a 14.369116,24.262663 0 0 0 5.11719,-18.56054 14.369116,24.262663 0 0 0 -14.35742,-24.26367 z"
         style="opacity:1;fill:#ffffff;fill-opacity:1;stroke:none;stroke-width:30;stroke-linecap:round;stroke-linejoin:round;stroke-miterlimit:4;stroke-dasharray:none;stroke-dashoffset:0;stroke-opacity:1"
         inkscape:connector-curvature="0" />
      <path
         id="path4312"
         d="m 683.74414,932.75781 v 0.004 a 1.286778,2.2605374 0 0 0 -1.25781,2.25781 1.286778,2.2605374 0 0 0 1.25781,2.25977 3.4760474,5.8694058 0 0 1 3.4707,5.86914 3.4760474,5.8694058 0 0 1 -3.4707,5.86914 v 0.01 a 1.286778,2.2605374 0 0 0 -0.32422,0.0899 l 3.20899,3.20703 a 6.1555008,10.393739 0 0 0 3.26562,-9.17188 6.1555008,10.393739 0 0 0 -6.15039,-10.39453 z"
         style="opacity:1;fill:#ffffff;fill-opacity:1;stroke:none;stroke-width:30;stroke-linecap:round;stroke-linejoin:round;stroke-miterlimit:4;stroke-dasharray:none;stroke-dashoffset:0;stroke-opacity:1"
         inkscape:connector-curvature="0" />
      <rect
         transform="rotate(-45)"
         ry="3.7367623"
         y="1096.8411"
         x="-197.99443"
         height="86.412712"
         width="8.4652328"
         id="rect4318"
         style="opacity:1;fill:#ff5555;fill-opacity:1;stroke:none;stroke-width:30;stroke-linecap:round;stroke-linejoin:round;stroke-miterlimit:4;stroke-dasharray:none;stroke-dashoffset:0;stroke-opacity:1" />
    </g>
    <g
       id="issues"
       transform="translate(-332.65178,14.165912)">
      <path
         sodipodi:nodetypes="sssssssss"
         inkscape:connector-curvature="0"
         id="path4342"
         d="m 546.83501,935.20119 c 0.72634,-7.64797 4.74237,-15.57666 10.72237,-20.40573 5.90926,-4.77197 14.49236,-7.54695 21.95532,-6.12173 7.87387,1.5037 14.99009,7.69072 19.14711,14.53909 3.40249,5.60535 4.76071,12.99003 3.31882,19.38545 -1.69134,7.50186 -6.80545,14.71027 -13.27532,18.8753 -3.85826,2.48378 -11.99445,3.03728 -16.53598,2.37408 -8.62418,-1.25939 -14.65069,-5.11858 -20.22644,-11.81173 -3.75435,-4.50677 -5.66027,-10.99739 -5.10588,-16.83473 z"
         style="fill:none;fill-rule:evenodd;stroke:#ffffff;stroke-width:8.16585922;stroke-linecap:butt;stroke-linejoin:miter;stroke-miterlimit:4;stroke-dasharray:none;stroke-opacity:1" />
      <path
         sodipodi:nodetypes="csc"
         inkscape:connector-curvature="0"
         id="path4344"
         d="m 575.25345,922.13114 c 0,0 -1.71338,5.6524 -1.96644,8.57334 -0.19555,2.25711 0.35753,6.78723 0.35753,6.78723"
         style="fill:none;fill-rule:evenodd;stroke:#ffffff;stroke-width:5.71806192;stroke-linecap:round;stroke-linejoin:miter;stroke-miterlimit:4;stroke-dasharray:none;stroke-opacity:1" />
      <path
         sodipodi:nodetypes="sssss"
         inkscape:connector-curvature="0"
         id="path4346"
         d="m 573.51329,951.87482 c -1.67973,-0.17792 -3.66858,-1.63593 -3.82942,-3.31594 -0.14427,-1.50692 1.31208,-3.33219 2.80824,-3.571 2.42387,-0.38688 6.23155,1.63091 6.12706,4.08116 -0.0827,1.93893 -3.1743,3.01038 -5.10588,2.80578 z"
         style="fill:#ffffff;fill-opacity:1;fill-rule:evenodd;stroke:none;stroke-width:1px;stroke-linecap:butt;stroke-linejoin:miter;stroke-opacity:1" />
    </g>
    <g
       id="credits"
       transform="translate(-340)">
      <rect
         ry="3.5424781"
         y="966.20013"
         x="483.83795"
         height="12.324103"
         width="56.324104"
         id="rect4353"
         style="opacity:1;fill:#ffffff;fill-opacity:1;stroke:#ffffff;stroke-width:7.67589664;stroke-linecap:round;stroke-linejoin:miter;stroke-miterlimit:4;stroke-dasharray:none;stroke-dashoffset:0;stroke-opacity:1" />
      <rect
         style="opacity:1;fill:#ffffff;fill-opacity:1;stroke:#ffffff;stroke-width:4.73907089;stroke-linecap:round;stroke-linejoin:miter;stroke-miterlimit:4;stroke-dasharray:none;stroke-dashoffset:0;stroke-opacity:1"
         id="rect4355"
         width="42.260929"
         height="6.2609291"
         x="490.86954"
         y="948.73175"
         ry="1.7996607" />
      <rect
         ry="1.0237477"
         y="934.59399"
         x="497.71921"
         height="3.5615666"
         width="28.561567"
         id="rect4357"
         style="opacity:1;fill:#ffffff;fill-opacity:1;stroke:#ffffff;stroke-width:2.93843341;stroke-linecap:round;stroke-linejoin:miter;stroke-miterlimit:4;stroke-dasharray:none;stroke-dashoffset:0;stroke-opacity:1" />
      <rect
         style="opacity:1;fill:#ffffff;fill-opacity:1;stroke:#ffffff;stroke-width:3.51989627;stroke-linecap:round;stroke-linejoin:miter;stroke-miterlimit:4;stroke-dasharray:none;stroke-dashoffset:0;stroke-opacity:1"
         id="rect4359"
         width="48.980106"
         height="2.9801037"
         x="487.50995"
         y="920.12213"
         ry="0.85661024" />
    </g>
    <g
       id="web"
       transform="translate(-317.19727,28.696185)">
      <path
         id="rect4382"
         d="m 393.07812,889.66602 c -3.25864,0 -5.88085,2.62221 -5.88085,5.88086 v 52.23632 c 0,3.25864 2.62221,5.88282 5.88085,5.88282 h 52.23633 c 3.25864,0 5.88282,-2.62418 5.88282,-5.88282 v -47.67382 c 0,-2.25865 -9.43668,-10.44336 -11.32032,-10.44336 z m 11.61133,11.375 h 29.7793 c 3.25864,0 5.88281,2.62417 5.88281,5.88281 v 29.77734 c 0,3.25864 -2.62417,5.88281 -5.88281,5.88281 h -29.7793 c -3.25864,0 -5.88086,-2.62417 -5.88086,-5.88281 v -29.77734 c 0,-3.25864 2.62222,-5.88281 5.88086,-5.88281 z"
         style="opacity:1;fill:#ffffff;fill-opacity:1;stroke:none;stroke-width:8;stroke-linecap:round;stroke-linejoin:miter;stroke-miterlimit:4;stroke-dasharray:none;stroke-dashoffset:0;stroke-opacity:1"
         inkscape:connector-curvature="0" />
      <path
         id="path4390"
         d="m 410.29883,923.16797 c -4.11124,0 -8.22199,0.57769 -8.88867,1.73242 -1.33338,2.30947 6.22192,15.39649 8.88867,15.39649 2.06392,-10e-6 7.04071,-7.82278 8.57422,-12.4375 1.53364,4.61476 6.5084,12.4375 8.57226,12.4375 2.66675,-10e-6 10.224,-13.08702 8.89063,-15.39649 -1.26549,-2.1919 -14.93568,-2.3027 -17.46485,-0.33398 -1.19803,-0.93093 -4.88088,-1.39844 -8.57226,-1.39844 z"
         style="opacity:1;fill:#ffffff;fill-opacity:1;stroke:none;stroke-width:8;stroke-linecap:round;stroke-linejoin:miter;stroke-miterlimit:4;stroke-dasharray:none;stroke-dashoffset:0;stroke-opacity:1"
         inkscape:connector-curvature="0" />
    </g>
    <g
       id="back"
       inkscape:export-xdpi="90"
       inkscape:export-ydpi="90"
       transform="translate(-350)">
      <path
         inkscape:connector-curvature="0"
         id="path4401"
         d="M 379.99414,918.37268 C 374.40215,918.91924 350,944.40892 350,950.36291 c 0,6.35093 27.76479,34.92937 30.84961,31.75391 1.18344,-1.21822 1.90817,-10.39596 2.18359,-21.4082 h 24.72656 c 3.45752,0 6.24024,-2.78467 6.24024,-6.24219 v -8.20703 c 0,-3.45752 -2.78272,-6.24219 -6.24024,-6.24219 H 383.0332 c -0.27542,-11.01224 -1.00015,-20.18998 -2.18359,-21.4082 -0.19281,-0.19847 -0.48267,-0.27277 -0.85547,-0.23633 z"
         style="opacity:1;fill:#ffffff;fill-opacity:1;stroke:none;stroke-width:8;stroke-linecap:round;stroke-linejoin:miter;stroke-miterlimit:4;stroke-dasharray:none;stroke-dashoffset:0;stroke-opacity:1" />
    </g>
    <rect
       rx="24"
       y="623.88177"
       x="337.90317"
       height="64"
       width="64"
       id="rect4208"
       style="opacity:1;fill:#ffffff;fill-opacity:1;stroke:none;stroke-width:0.1;stroke-linecap:round;stroke-linejoin:miter;stroke-miterlimit:4;stroke-dasharray:none;stroke-dashoffset:0;stroke-opacity:1"
       ry="24" />
    <text
       xml:space="preserve"
       style="font-style:normal;font-weight:normal;line-height:0%;font-family:sans-serif;letter-spacing:0px;word-spacing:0px;fill:#ffffff;fill-opacity:1;stroke:none;stroke-width:1px;stroke-linecap:butt;stroke-linejoin:miter;stroke-opacity:1"
       x="266.84592"
       y="600.63055"
       id="text4176"><tspan
         sodipodi:role="line"
         id="tspan4178"
         x="266.84592"
         y="600.63055"
         style="font-size:10.25197601px;line-height:1.25">24px radius</tspan></text>
    <path
       style="opacity:1;fill:#b3b3b3;fill-opacity:1;stroke:none;stroke-width:0.1;stroke-linecap:round;stroke-linejoin:miter;stroke-miterlimit:4;stroke-dasharray:none;stroke-dashoffset:0;stroke-opacity:1"
       d="m 342.4481,633.80082 c -2.8585,3.9507 -4.54492,8.8097 -4.54492,14.0801 v 16 c 0,13.296 10.70401,24 24.00001,24 h 15.99999 c 4.9535,0 9.54683,-1.4871 13.36133,-4.039 h -27.91015 c -11.58215,0 -20.90626,-9.3241 -20.90626,-20.9063 z"
       id="rect4217"
       inkscape:connector-curvature="0" />
    <rect
       ry="24"
       style="opacity:1;fill:#ffffff;fill-opacity:1;stroke:none;stroke-width:0.1;stroke-linecap:round;stroke-linejoin:miter;stroke-miterlimit:4;stroke-dasharray:none;stroke-dashoffset:0;stroke-opacity:1"
       id="rect4241"
       width="60"
       height="60"
       x="416.40317"
       y="627.88177"
       rx="24" />
    <rect
       style="opacity:1;fill:#0000ff;fill-opacity:0.5;stroke:none;stroke-width:0.1;stroke-linecap:round;stroke-linejoin:miter;stroke-miterlimit:4;stroke-dasharray:none;stroke-dashoffset:0;stroke-opacity:1"
       id="rect4152"
       width="28"
       height="28"
       x="337.90317"
       y="623.88177"
       rx="0"
       ry="0" />
    <text
       id="text4154"
       y="616.63055"
       x="266.84592"
       style="font-style:normal;font-weight:normal;line-height:0%;font-family:sans-serif;letter-spacing:0px;word-spacing:0px;fill:#ffffff;fill-opacity:1;stroke:none;stroke-width:1px;stroke-linecap:butt;stroke-linejoin:miter;stroke-opacity:1"
       xml:space="preserve"><tspan
         y="616.63055"
         x="266.84592"
         id="tspan4156"
         sodipodi:role="line"
         style="font-size:10.25197601px;line-height:1.25">28px patch</tspan></text>
    <rect
       ry="0"
       rx="0"
       y="623.88177"
       x="373.90317"
       height="28"
       width="28"
       id="rect4158"
       style="opacity:1;fill:#0000ff;fill-opacity:0.5;stroke:none;stroke-width:0.1;stroke-linecap:round;stroke-linejoin:miter;stroke-miterlimit:4;stroke-dasharray:none;stroke-dashoffset:0;stroke-opacity:1" />
    <rect
       ry="0"
       rx="0"
       y="659.88177"
       x="337.90317"
       height="28"
       width="28"
       id="rect4160"
       style="opacity:1;fill:#0000ff;fill-opacity:0.5;stroke:none;stroke-width:0.1;stroke-linecap:round;stroke-linejoin:miter;stroke-miterlimit:4;stroke-dasharray:none;stroke-dashoffset:0;stroke-opacity:1" />
    <rect
       style="opacity:1;fill:#0000ff;fill-opacity:0.5;stroke:none;stroke-width:0.1;stroke-linecap:round;stroke-linejoin:miter;stroke-miterlimit:4;stroke-dasharray:none;stroke-dashoffset:0;stroke-opacity:1"
       id="rect4162"
       width="28"
       height="28"
       x="373.90317"
       y="659.88177"
       rx="0"
       ry="0" />
    <path
       style="opacity:1;fill:#b3b3b3;fill-opacity:1;stroke:none;stroke-width:0.1;stroke-linecap:round;stroke-linejoin:miter;stroke-miterlimit:4;stroke-dasharray:none;stroke-dashoffset:0;stroke-opacity:1"
       d="m 418.94902,641.09562 c -1.62569,3.2403 -2.54492,6.6807 -2.54492,10.5661 v 12.221 c 0,0.8012 0.0412,1.5925 0.11719,2.3731 0.003,0.029 0.003,0.058 0.006,0.086 0.0409,0.4051 0.0918,0.8064 0.15234,1.2051 0.18148,1.1943 0.45121,2.3596 0.80079,3.4883 0.11652,0.3762 0.24078,0.7473 0.375,1.1152 0.13421,0.368 0.27632,0.7307 0.42773,1.0899 3.3e-4,7e-4 0.002,0 0.002,0 0.15111,0.3584 0.31078,0.7134 0.47852,1.0625 0.0859,0.1788 0.17939,0.3531 0.26953,0.5293 0.0862,0.1686 0.16773,0.3397 0.25781,0.5059 0.18469,0.3409 0.37766,0.6752 0.57812,1.0058 0.20002,0.3299 0.40782,0.6536 0.62305,0.9727 0.43072,0.6387 0.89023,1.255 1.37891,1.8476 0.24416,0.2962 0.49406,0.5853 0.75195,0.8692 6.2e-4,7e-4 10e-4,0 0.002,0 0.25731,0.2832 0.52249,0.5596 0.79297,0.8301 0.27112,0.2711 0.54817,0.537 0.83203,0.7949 0.28386,0.2579 0.57304,0.5078 0.86914,0.752 0.064,0.053 0.13077,0.1022 0.19531,0.1543 0.23421,0.1891 0.46955,0.3783 0.71094,0.5586 4.1e-4,3e-4 0.001,-3e-4 0.002,0 0.12747,0.095 0.25925,0.1846 0.38867,0.2773 0.49531,0.3548 1.00076,0.6948 1.52344,1.0117 0.3306,0.2006 0.66495,0.3934 1.00586,0.5782 0.68024,0.3686 1.3813,0.705 2.09961,1.0078 0.35916,0.1514 0.72191,0.2935 1.08984,0.4277 1.10454,0.4031 2.24521,0.7277 3.41992,0.9668 1.14634,0.2334 2.32288,0.3845 3.52344,0.4492 0.0288,0 0.0571,0 0.0859,0.01 0.41084,0.021 0.82408,0.031 1.24024,0.031 h 12.625 c 3.78261,0 6.72804,-0.8701 9.90429,-2.416 h -23.07812 c -11.58215,0 -20.90625,-9.324 -20.90625,-20.9062 z"
       id="path4243"
       inkscape:connector-curvature="0"
       sodipodi:nodetypes="cssscccccccccccccccscccccccsccccsscssc" />
    <rect
       ry="0"
       rx="0"
       y="623.88177"
       x="416.40317"
       height="28"
       width="28"
       id="rect4164"
       style="opacity:1;fill:#0000ff;fill-opacity:0.5;stroke:none;stroke-width:0.1;stroke-linecap:round;stroke-linejoin:miter;stroke-miterlimit:4;stroke-dasharray:none;stroke-dashoffset:0;stroke-opacity:1" />
    <rect
       style="opacity:1;fill:#0000ff;fill-opacity:0.5;stroke:none;stroke-width:0.1;stroke-linecap:round;stroke-linejoin:miter;stroke-miterlimit:4;stroke-dasharray:none;stroke-dashoffset:0;stroke-opacity:1"
       id="rect4166"
       width="28"
       height="28"
       x="452.40317"
       y="623.88177"
       rx="0"
       ry="0" />
    <rect
       style="opacity:1;fill:#0000ff;fill-opacity:0.5;stroke:none;stroke-width:0.1;stroke-linecap:round;stroke-linejoin:miter;stroke-miterlimit:4;stroke-dasharray:none;stroke-dashoffset:0;stroke-opacity:1"
       id="rect4168"
       width="28"
       height="28"
       x="416.40317"
       y="659.88177"
       rx="0"
       ry="0" />
    <rect
       ry="0"
       rx="0"
       y="659.88177"
       x="452.40317"
       height="28"
       width="28"
       id="rect4170"
       style="opacity:1;fill:#0000ff;fill-opacity:0.5;stroke:none;stroke-width:0.1;stroke-linecap:round;stroke-linejoin:miter;stroke-miterlimit:4;stroke-dasharray:none;stroke-dashoffset:0;stroke-opacity:1" />
    <g
       id="stopwatch"
       transform="matrix(1.0000058,0,0,0.99999982,88.648501,48.164015)"
       inkscape:export-xdpi="90"
       inkscape:export-ydpi="90">
      <path
         sodipodi:nodetypes="ssssssssss"
         inkscape:connector-curvature="0"
         id="path4329"
         d="m 293.00013,811.60486 c 6.84247,-0.1489 14.28515,1.85078 19.431,5.78024 5.02687,3.83862 8.03037,9.87752 8.90588,15.64896 0.79286,5.22628 -0.48454,10.96816 -3.56234,15.50795 -3.01767,4.4511 -8.04215,8.1973 -13.6017,10.00969 -6.82473,2.22486 -15.06696,2.57935 -21.8599,0.28197 -6.01502,-2.03428 -11.0325,-6.61173 -14.08747,-11.56049 -2.69706,-4.36895 -3.49907,-9.72824 -2.91465,-14.66206 0.57169,-4.8264 2.21715,-10.09942 6.15315,-13.53423 5.458,-4.76301 13.81078,-7.30392 21.53603,-7.47203 z"
         style="fill:none;fill-rule:evenodd;stroke:#ffffff;stroke-width:7.55450535;stroke-linecap:butt;stroke-linejoin:miter;stroke-miterlimit:4;stroke-dasharray:none;stroke-opacity:1" />
      <path
         sodipodi:nodetypes="sssssssss"
         inkscape:connector-curvature="0"
         id="path4331"
         d="m 294.12499,816.72537 c -0.31566,-0.0479 -1.17519,1.35642 -1.30391,1.93795 -0.7005,3.16436 -0.79872,15.2045 -0.79872,15.2045 -0.85264,-0.3338 -4.47085,0.85668 -4.42936,3.63521 0.0469,3.14988 3.20665,5.22587 5.80897,5.21572 2.91134,-0.0114 5.88407,-2.93886 5.70004,-5.46861 -0.15049,-2.06891 -2.7376,-3.39886 -4.21149,-3.31908 0,0 0.447,-12.63435 0.194,-15.149 -0.0654,-0.65023 -0.56155,-1.99635 -0.95953,-2.05669 z"
         style="fill:#ffffff;fill-opacity:1;fill-rule:evenodd;stroke:none;stroke-width:0.3020601px;stroke-linecap:butt;stroke-linejoin:miter;stroke-opacity:1" />
      <path
         inkscape:connector-curvature="0"
         id="rect4333"
         d="m 290.2474,800.1983 c -1.79413,0 -3.2385,1.25755 -3.2385,2.81963 v 1.12785 c 0,1.56208 1.44437,2.81964 3.2385,2.81964 h 1.68502 v 1.39715 c 0,0.65173 0.60254,1.17686 1.35109,1.17686 h 0.4048 c 0.74854,0 1.35108,-0.52513 1.35108,-1.17686 v -1.39715 h 1.68502 c 1.79413,0 3.23851,-1.25756 3.23851,-2.81964 v -1.12785 c 0,-1.56208 -1.44438,-2.81963 -3.23851,-2.81963 z"
         style="opacity:1;fill:#ffffff;fill-opacity:1;stroke:none;stroke-width:8;stroke-linecap:round;stroke-linejoin:miter;stroke-miterlimit:4;stroke-dasharray:none;stroke-dashoffset:0;stroke-opacity:1" />
      <path
         style="opacity:1;fill:#ffffff;fill-opacity:1;stroke:none;stroke-width:8;stroke-linecap:round;stroke-linejoin:miter;stroke-miterlimit:4;stroke-dasharray:none;stroke-dashoffset:0;stroke-opacity:1"
         d="m 318.11852,809.23583 c -0.95338,-0.83005 -2.4884,-0.83005 -3.44178,0 l -0.68833,0.59935 c -0.95339,0.83004 -0.95339,2.16651 0,2.99659 l 0.8954,0.7796 -0.85272,0.7424 c -0.39775,0.34632 -0.39811,0.90411 0,1.25046 l 0.2151,0.18728 c 0.39778,0.3463 1.03845,0.34604 1.4362,0 l 0.85275,-0.74244 0.89537,0.77957 c 0.95337,0.83008 2.4884,0.83008 3.44177,0 l 0.68836,-0.59932 c 0.95338,-0.83006 0.95338,-2.16651 0,-2.99658 l -3.44176,-2.99663 z"
         id="path4341"
         inkscape:connector-curvature="0" />
    </g>
    <g
       id="play_saved">
      <path
         sodipodi:nodetypes="sssssssss"
         inkscape:connector-curvature="0"
         id="rect4297"
         d="m 214.77685,848.36212 h 6.4463 c 2.64637,0 5.0743,2.14725 4.77685,4.77686 -2.03293,17.97199 -1.76777,36.29753 0,54.44629 0.25655,2.6339 -2.13048,4.77685 -4.77685,4.77685 h -6.4463 c -2.64637,0 -4.77685,-2.13048 -4.77685,-4.77685 v -54.44629 c 0,-2.64638 2.13048,-4.77686 4.77685,-4.77686 z"
         style="opacity:1;fill:#ffffff;fill-opacity:1;stroke:none;stroke-width:25;stroke-linecap:round;stroke-linejoin:miter;stroke-miterlimit:4;stroke-dasharray:none;stroke-dashoffset:0;stroke-opacity:1" />
      <path
         inkscape:transform-center-y="-2.6554673e-05"
         transform="matrix(1.1669581,0,0,1.6462967,-45.746508,-568.9752)"
         inkscape:transform-center-x="-5.0357518"
         d="m 274,880.36218 c 0,3.85771 -30.06782,21.21737 -33.40869,19.28852 -3.34087,-1.92885 -3.34087,-36.64818 0,-38.57703 C 243.93218,859.14481 274,876.50448 274,880.36218 Z"
         inkscape:randomized="0"
         inkscape:rounded="0.1"
         inkscape:flatsided="true"
         sodipodi:arg2="1.0471976"
         sodipodi:arg1="0"
         sodipodi:r2="11.13623"
         sodipodi:r1="22.272461"
         sodipodi:cy="880.36218"
         sodipodi:cx="251.72754"
         sodipodi:sides="3"
         id="path4301"
         style="opacity:1;fill:#ffffff;fill-opacity:1;stroke:none;stroke-width:25;stroke-linecap:round;stroke-linejoin:miter;stroke-miterlimit:4;stroke-dasharray:none;stroke-dashoffset:0;stroke-opacity:1"
         sodipodi:type="star" />
    </g>
    <g
       id="stopwatch_saved">
      <path
         style="fill:none;fill-rule:evenodd;stroke:#ffffff;stroke-width:7.55499983;stroke-linecap:round;stroke-linejoin:miter;stroke-miterlimit:4;stroke-dasharray:none;stroke-opacity:1"
         d="m 308.73352,859.76873 c 12.22023,-0.74642 17.475,1.82045 22.34793,5.78024 4.9086,3.98878 8.03042,9.87752 8.90593,15.64896 0.79287,5.22627 -0.48454,10.96815 -3.56236,15.50794 -3.01769,4.4511 -8.0422,8.1973 -13.60178,10.00969 -6.82477,2.22486 -15.06705,2.57935 -21.86002,0.28197 -6.01506,-2.03428 -11.03257,-6.61173 -14.08756,-11.56049 -2.69707,-4.36895 -3.49909,-9.72824 -2.91466,-14.66205 0.57169,-4.8264 2.05295,-7.77359 5.98897,-11.2084"
         id="path4324"
         inkscape:connector-curvature="0"
         sodipodi:nodetypes="csssssssc" />
      <path
         style="fill:#ffffff;fill-opacity:1;fill-rule:evenodd;stroke:none;stroke-width:0.3020601px;stroke-linecap:butt;stroke-linejoin:miter;stroke-opacity:1"
         d="m 312.7752,864.88924 c -0.31566,-0.0479 -1.17519,1.35642 -1.30391,1.93795 -0.70051,3.16436 -0.79873,15.20449 -0.79873,15.20449 -0.85264,-0.3338 -4.47087,0.85668 -4.42938,3.63521 0.0469,3.14988 3.20666,5.22587 5.809,5.21572 2.91136,-0.0114 5.8841,-2.93886 5.70007,-5.46861 -0.15049,-2.06891 -2.73761,-3.39886 -4.21151,-3.31908 0,0 0.447,-12.63434 0.194,-15.14899 -0.0654,-0.65023 -0.56155,-1.99635 -0.95954,-2.05669 z"
         id="path4326"
         inkscape:connector-curvature="0"
         sodipodi:nodetypes="sssssssss" />
      <path
         style="opacity:1;fill:#ffffff;fill-opacity:1;stroke:none;stroke-width:8;stroke-linecap:round;stroke-linejoin:miter;stroke-miterlimit:4;stroke-dasharray:none;stroke-dashoffset:0;stroke-opacity:1"
         d="m 308.89759,848.36217 c -1.79414,0 -3.23852,1.25755 -3.23852,2.81963 v 1.12785 c 0,1.56208 1.44438,2.81964 3.23852,2.81964 h 1.68503 v 1.39715 c 0,0.65173 0.60254,1.17686 1.3511,1.17686 h 0.4048 c 0.74855,0 1.35109,-0.52513 1.35109,-1.17686 v -1.39715 h 1.68503 c 1.79414,0 3.23853,-1.25756 3.23853,-2.81964 v -1.12785 c 0,-1.56208 -1.44439,-2.81963 -3.23853,-2.81963 z"
         id="path4328"
         inkscape:connector-curvature="0" />
      <path
         inkscape:connector-curvature="0"
         id="path4330"
         d="m 336.76887,857.3997 c -0.95338,-0.83005 -2.48841,-0.83005 -3.4418,0 l -0.68833,0.59935 c -0.9534,0.83004 -0.9534,2.16651 0,2.99659 l 0.8954,0.7796 -0.85272,0.7424 c -0.39775,0.34632 -0.39811,0.90411 0,1.25046 l 0.2151,0.18728 c 0.39778,0.3463 1.03846,0.34604 1.43621,0 l 0.85275,-0.74244 0.89538,0.77957 c 0.95337,0.83008 2.48841,0.83008 3.44179,0 l 0.68836,-0.59932 c 0.95339,-0.83006 0.95339,-2.16651 0,-2.99658 l -3.44178,-2.99663 z"
         style="opacity:1;fill:#ffffff;fill-opacity:1;stroke:none;stroke-width:8;stroke-linecap:round;stroke-linejoin:miter;stroke-miterlimit:4;stroke-dasharray:none;stroke-dashoffset:0;stroke-opacity:1" />
      <path
         transform="matrix(1.1470509,0,0,0.85615748,-38.227681,122.24816)"
         inkscape:transform-center-x="1.9916589"
         d="m 292.10586,877.62326 c -1.34426,0.77611 -13.44258,-6.20886 -13.44258,-7.76108 0,-1.55221 12.09832,-8.53719 13.44258,-7.76108 1.34426,0.77611 1.34426,14.74606 0,15.52216 z"
         inkscape:randomized="0"
         inkscape:rounded="0.1"
         inkscape:flatsided="true"
         sodipodi:arg2="2.0943951"
         sodipodi:arg1="1.0471976"
         sodipodi:r2="4.4808621"
         sodipodi:r1="8.9617243"
         sodipodi:cy="869.86218"
         sodipodi:cx="287.625"
         sodipodi:sides="3"
         id="path4336"
         style="opacity:1;fill:#ffffff;fill-opacity:1;stroke:none;stroke-width:7.55499983;stroke-linecap:round;stroke-linejoin:miter;stroke-miterlimit:4;stroke-dasharray:none;stroke-dashoffset:0;stroke-opacity:1"
         sodipodi:type="star" />
    </g>
    <g
       id="snap_on">
      <path
         inkscape:connector-curvature="0"
         id="rect4329"
         d="m 156.65234,848.36216 c -1.88479,0 -3.40234,1.51755 -3.40234,3.40234 v 9.84766 h -9.84766 c -1.88479,0 -3.40234,1.51755 -3.40234,3.40234 v 5.19532 c 0,1.88479 1.51755,3.40234 3.40234,3.40234 H 153.25 v 13.5 h -9.84766 c -1.88479,0 -3.40234,1.51755 -3.40234,3.40234 v 5.19532 c 0,1.88479 1.51755,3.40234 3.40234,3.40234 H 153.25 v 9.84766 c 0,1.88479 1.51755,3.40234 3.40234,3.40234 h 5.19532 c 1.88479,0 3.40234,-1.51755 3.40234,-3.40234 v -9.84766 h 13.5 v 9.84766 c 0,1.88479 1.51755,3.40234 3.40234,3.40234 h 5.19532 c 1.88479,0 3.40234,-1.51755 3.40234,-3.40234 v -9.84766 h 9.84766 c 1.88479,0 3.40234,-1.51755 3.40234,-3.40234 v -5.19532 c 0,-1.88479 -1.51755,-3.40234 -3.40234,-3.40234 H 190.75 v -13.5 h 9.84766 c 1.88479,0 3.40234,-1.51755 3.40234,-3.40234 v -5.19532 c 0,-1.88479 -1.51755,-3.40234 -3.40234,-3.40234 H 190.75 v -9.84766 c 0,-1.88479 -1.51755,-3.40234 -3.40234,-3.40234 h -5.19532 c -1.88479,0 -3.40234,1.51755 -3.40234,3.40234 v 9.84766 h -13.5 v -9.84766 c 0,-1.88479 -1.51755,-3.40234 -3.40234,-3.40234 z m 8.59766,25.25 h 13.5 v 13.5 h -13.5 z"
         style="opacity:1;fill:#ffffff;fill-opacity:1;stroke:none;stroke-width:30;stroke-linecap:round;stroke-linejoin:round;stroke-miterlimit:4;stroke-dasharray:none;stroke-dashoffset:0;stroke-opacity:1" />
    </g>
    <g
       id="snap_off"
       transform="translate(-0.0933799,-0.27734)">
      <path
         id="path4343"
         transform="translate(0,552.36216)"
         d="m 86.746094,296.27734 c -1.88479,0 -3.402344,1.51756 -3.402344,3.40235 v 0.54297 l 21.30469,21.30468 h 4.19531 v 4.19336 l 21.30664,21.30664 h 0.54102 c 1.88479,0 3.40234,-1.51755 3.40234,-3.40234 v -5.19531 c 0,-1.88479 -1.51755,-3.40235 -3.40234,-3.40235 h -9.84766 v -13.5 h 9.84766 c 1.88479,0 3.40234,-1.51755 3.40234,-3.40234 v -5.19531 c 0,-1.88479 -1.51755,-3.40235 -3.40234,-3.40235 h -9.84766 v -9.84765 c 0,-1.88479 -1.51755,-3.40235 -3.40234,-3.40235 h -5.19532 c -1.88479,0 -3.40234,1.51756 -3.40234,3.40235 v 9.84765 h -13.5 v -9.84765 c 0,-1.88479 -1.517554,-3.40235 -3.402344,-3.40235 z m -13.25,13.25 c -1.88479,0 -3.402344,1.51756 -3.402344,3.40235 v 5.19531 c 0,1.88479 1.517554,3.40234 3.402344,3.40234 h 9.847656 v 13.5 h -9.847656 c -1.88479,0 -3.402344,1.51756 -3.402344,3.40235 v 5.19531 c 0,1.88479 1.517554,3.40234 3.402344,3.40234 h 9.847656 v 9.84766 c 0,1.88479 1.517554,3.40234 3.402344,3.40234 h 5.195312 c 1.88479,0 3.402344,-1.51755 3.402344,-3.40234 v -9.84766 h 13.5 v 9.84766 c 0,1.88479 1.51755,3.40234 3.40234,3.40234 h 5.19532 c 1.88479,0 3.40234,-1.51755 3.40234,-3.40234 v -0.54102 L 99.537109,335.02734 H 95.34375 v -4.19531 L 74.039062,309.52734 Z"
         style="opacity:1;fill:#ffffff;fill-opacity:1;stroke:none;stroke-width:30;stroke-linecap:round;stroke-linejoin:round;stroke-miterlimit:4;stroke-dasharray:none;stroke-dashoffset:0;stroke-opacity:1"
         inkscape:connector-curvature="0" />
      <rect
         style="opacity:1;fill:#ff5555;fill-opacity:1;stroke:none;stroke-width:30;stroke-linecap:round;stroke-linejoin:round;stroke-miterlimit:4;stroke-dasharray:none;stroke-dashoffset:0;stroke-opacity:1"
         id="rect4354"
         width="8.4652328"
         height="86.412712"
         x="-554.74762"
         y="651.69049"
         ry="3.7367623"
         transform="rotate(-45)" />
    </g>
    <g
       id="ok">
      <path
         sodipodi:nodetypes="scccccccccccs"
         inkscape:connector-curvature="0"
         id="rect4339"
         d="m 306.42275,810.38996 c -0.94631,0.0732 -1.83806,0.60109 -2.34375,1.49219 l -10.96875,19.32617 -5.96875,-6.69727 c -0.97729,-1.09677 -2.64737,-1.19408 -3.74414,-0.21679 l -2.50782,2.23437 c -1.09677,0.97729 -1.19213,2.64737 -0.21484,3.74414 l 9.99609,11.21875 c 2.56611,2.34609 6.58805,-0.58413 7.98243,-2.5 l 12.95898,-22.83398 c 0.8091,-1.42576 0.31248,-3.2241 -1.11328,-4.03321 l -2.38672,-1.35546 c -0.53466,-0.30342 -1.12167,-0.42284 -1.68945,-0.37891 z"
         style="opacity:1;fill:#ffffff;fill-opacity:1;stroke:none;stroke-width:30;stroke-linecap:round;stroke-linejoin:round;stroke-miterlimit:4;stroke-dasharray:none;stroke-dashoffset:0;stroke-opacity:1" />
    </g>
    <g
       id="cancel">
      <path
         inkscape:connector-curvature="0"
         id="rect4356"
         d="m 320.52609,778.38092 c -0.57668,0.0508 -1.14636,0.20524 -1.67578,0.47266 l -1.69336,0.85547 c -2.11769,1.06969 -2.76965,3.52564 -1.46289,5.50586 l 5.56836,8.43945 -7.875,6.89063 c -1.84803,1.61683 -1.84803,4.21909 0,5.83593 l 0.95312,0.83399 c 1.84803,1.61684 4.82189,1.61684 6.66992,0 l 5.83399,-5.10352 4.125,6.25196 c 1.30675,1.98021 4.06395,2.71227 6.18164,1.64257 l 1.69336,-0.85547 c 2.11769,-1.06969 2.76965,-3.52564 1.46289,-5.50586 l -5.56836,-8.43945 7.875,-6.89062 c 1.84803,-1.61684 1.84803,-4.2191 0,-5.83594 l -0.95312,-0.83399 c -1.84804,-1.61683 -4.82385,-1.61683 -6.67188,0 l -5.83203,5.10352 -4.125,-6.25195 c -0.98007,-1.48516 -2.77584,-2.26753 -4.50586,-2.11524 z"
         style="opacity:1;fill:#ffffff;fill-opacity:1;stroke:none;stroke-width:30;stroke-linecap:round;stroke-linejoin:round;stroke-miterlimit:4;stroke-dasharray:none;stroke-dashoffset:0;stroke-opacity:1" />
    </g>
    <g
       id="bubble"
       transform="matrix(3.0000588,0,0,3.0000588,-107.02664,-1835.9396)">
      <rect
         style="opacity:1;fill:none;fill-opacity:1;stroke:none;stroke-width:0.1;stroke-linecap:round;stroke-linejoin:miter;stroke-miterlimit:4;stroke-dasharray:none;stroke-dashoffset:0;stroke-opacity:1"
         id="rect4652"
         width="16"
         height="16"
         x="53.985813"
         y="806.75049"
         ry="0" />
      <circle
         r="6.9998441"
         cy="814.75049"
         cx="61.985813"
         id="path4660"
         style="opacity:1;fill:url(#radialGradient4661);fill-opacity:1;stroke:none;stroke-width:0.99538457;stroke-linecap:square;stroke-linejoin:bevel;stroke-miterlimit:4;stroke-dasharray:none;stroke-opacity:1" />
    </g>
    <g
       id="ghost"
       transform="translate(-46.651447,-190.88537)">
      <rect
         style="opacity:1;fill:none;fill-opacity:1;stroke:none;stroke-width:0.30000588;stroke-linecap:round;stroke-linejoin:miter;stroke-miterlimit:4;stroke-dasharray:none;stroke-dashoffset:0;stroke-opacity:1"
         id="rect4648"
         width="48.000942"
         height="48.000942"
         x="157.52437"
         y="775.24426"
         ry="0" />
      <path
         id="rect4642"
         transform="matrix(0.93750005,0,0,0.93750005,0,552.36216)"
         d="m 193.66406,239.91797 c -10.97364,0 -19.8116,8.76871 -19.94726,19.70898 -0.11585,9.34661 -2.53888,20.38197 -0.51172,25.77344 1.34684,3.58208 6.86544,-1.03439 10.6914,-0.94922 3.15791,0.0703 6.2845,0.68409 9.43946,0.83789 3.62242,0.17663 7.25141,-1.73974 10.86914,-1.48437 3.2925,0.2324 7.56924,4.60288 9.20898,1.73828 3.05313,-5.33378 0.31708,-16.56886 0.20117,-25.91602 -0.13566,-10.94027 -8.97753,-19.70898 -19.95117,-19.70898 z m -9.15429,9.38281 a 5.4974652,5.4974652 0 0 1 5.49804,5.49805 5.4974652,5.4974652 0 0 1 -5.49804,5.49609 5.4974652,5.4974652 0 0 1 -5.49805,-5.49609 5.4974652,5.4974652 0 0 1 5.49805,-5.49805 z m 17.22461,0 a 5.4974652,5.4974652 0 0 1 5.49804,5.49805 5.4974652,5.4974652 0 0 1 -5.49804,5.49609 5.4974652,5.4974652 0 0 1 -5.49805,-5.49609 5.4974652,5.4974652 0 0 1 5.49805,-5.49805 z"
         style="opacity:1;fill:#ffffff;fill-opacity:1;stroke:none;stroke-width:1.1729759;stroke-linecap:square;stroke-linejoin:bevel;stroke-miterlimit:4;stroke-dasharray:none;stroke-opacity:1"
         inkscape:connector-curvature="0" />
    </g>
    <g
       id="power_off">
      <rect
         y="848.36218"
         x="-1.7763568e-15"
         height="64.000313"
         width="64.000313"
         id="rect4660"
         style="fill:none;fill-opacity:1;stroke:none;stroke-width:2.16577601;stroke-opacity:1" />
      <path
         sodipodi:nodetypes="ssssssssssss"
         inkscape:connector-curvature="0"
         id="path4662"
         d="m 45.036191,857.69924 c 5.203104,-3.79965 9.388151,4.33734 11.779635,8.22107 5.165057,8.38797 5.975717,19.35861 0.89549,28.1922 -5.366639,9.33161 -15.15808,16.39433 -26.245535,15.66611 C 18.331227,908.91594 5.6536704,899.49369 3.3341588,886.10284 1.6199931,876.20673 4.6666459,866.10771 11.962852,858.7082 c 5.148946,-5.22185 9.55443,0.629 5.270728,5.67046 -3.365214,3.9605 -6.611104,7.9085 -7.177727,13.23675 -1.1402987,10.72284 5.741703,21.44966 16.073318,24.33824 11.932388,3.33614 25.142774,-5.26317 27.283423,-17.41893 1.239676,-7.03955 -2.535275,-14.29484 -6.245168,-19.54582 -1.440336,-2.03865 -4.832856,-5.31676 -2.131235,-7.28966 z"
         style="fill:#ffffff;fill-opacity:1;stroke:none;stroke-width:0.93750006px;stroke-linecap:butt;stroke-linejoin:miter;stroke-opacity:1" />
      <path
         sodipodi:nodetypes="sssssssssss"
         inkscape:connector-curvature="0"
         id="path4664"
         d="m 28.96558,851.96616 c 0.835392,-0.69063 1.986545,-1.09077 3.070271,-1.07103 1.047321,0.0191 2.170527,0.41835 2.927466,1.14243 0.977909,0.93545 1.646441,2.3596 1.642238,3.71288 l -0.0714,22.99133 c -0.0026,0.83573 -0.291448,1.74078 -0.85682,2.35626 -0.958108,1.04302 -2.439879,1.8216 -3.855688,1.78503 -1.479356,-0.0382 -3.055098,-0.87499 -3.927089,-2.07064 -0.484195,-0.66392 -0.425936,-1.60594 -0.428411,-2.42766 l -0.0714,-23.70534 c -0.0031,-1.04505 0.765383,-2.04738 1.570833,-2.71326 z"
         style="fill:#ffffff;fill-opacity:1;stroke:none;stroke-width:0.93750006px;stroke-linecap:butt;stroke-linejoin:miter;stroke-opacity:1" />
    </g>
    <g
       id="drop"
       transform="translate(0,-190.88537)">
      <g
         style="fill:#808080"
         id="g4655"
         inkscape:export-xdpi="90"
         inkscape:export-ydpi="90"
         transform="matrix(3.0000588,0,0,3.0000588,164.80126,-2123.8991)">
        <rect
           ry="0"
           y="966.36218"
           x="0"
           height="16"
           width="16"
           id="rect4651"
           style="opacity:1;fill:none;fill-opacity:1;stroke:none;stroke-width:0.1;stroke-linecap:round;stroke-linejoin:miter;stroke-miterlimit:4;stroke-dasharray:none;stroke-dashoffset:0;stroke-opacity:1" />
      </g>
      <path
         sodipodi:nodetypes="ssscs"
         inkscape:connector-curvature="0"
         id="path4659"
         d="m 205.96784,806.0791 c 0,9.48058 -7.68553,17.16612 -17.16611,17.16612 -9.48059,0 -17.16612,-7.68553 -17.16612,-17.16612 0,-9.48059 17.16612,-30.83148 17.16612,-30.83148 0,0 17.16611,21.3509 17.16611,30.83148 z"
         style="fill:url(#radialGradient4670);fill-opacity:1;stroke:none;stroke-width:1.15489137;stroke-opacity:1" />
    </g>
    <g
       id="effects">
      <path
         sodipodi:nodetypes="sssss"
         inkscape:connector-curvature="0"
         id="path4677"
         d="M 0.59675291,832.58613 C -2.6629135,836.20167 8.4327773,845.27186 11.396485,841.41 25.76311,822.68956 42.842597,808.82922 55.304328,795.58121 58.687734,791.98432 48.888507,782.56758 44.629847,785.06734 32.509154,792.18199 17.31497,814.04271 0.59675291,832.58613 Z"
         style="fill:#ffffff;fill-opacity:1;stroke:none;stroke-width:0.93750006px;stroke-linecap:butt;stroke-linejoin:miter;stroke-opacity:1" />
      <g
         transform="matrix(0.25323351,0.45330972,-0.45330972,0.25323351,301.36863,437.50493)"
         id="g4681">
        <path
           inkscape:connector-curvature="0"
           id="path4679"
           d="m 320.52609,778.38092 c -0.57668,0.0508 -1.14636,0.20524 -1.67578,0.47266 l -1.69336,0.85547 c -2.11769,1.06969 -2.76965,3.52564 -1.46289,5.50586 l 5.56836,8.43945 -7.875,6.89063 c -1.84803,1.61683 -1.84803,4.21909 0,5.83593 l 0.95312,0.83399 c 1.84803,1.61684 4.82189,1.61684 6.66992,0 l 5.83399,-5.10352 4.125,6.25196 c 1.30675,1.98021 4.06395,2.71227 6.18164,1.64257 l 1.69336,-0.85547 c 2.11769,-1.06969 2.76965,-3.52564 1.46289,-5.50586 l -5.56836,-8.43945 7.875,-6.89062 c 1.84803,-1.61684 1.84803,-4.2191 0,-5.83594 l -0.95312,-0.83399 c -1.84804,-1.61683 -4.82385,-1.61683 -6.67188,0 l -5.83203,5.10352 -4.125,-6.25195 c -0.98007,-1.48516 -2.77584,-2.26753 -4.50586,-2.11524 z"
           style="opacity:1;fill:#ffffff;fill-opacity:1;stroke:none;stroke-width:30;stroke-linecap:round;stroke-linejoin:round;stroke-miterlimit:4;stroke-dasharray:none;stroke-dashoffset:0;stroke-opacity:1" />
      </g>
      <g
         id="g4685"
         transform="matrix(0.507744,0.10868738,-0.10868738,0.507744,-25.349674,371.6549)">
        <path
           style="opacity:1;fill:#ffffff;fill-opacity:1;stroke:none;stroke-width:30;stroke-linecap:round;stroke-linejoin:round;stroke-miterlimit:4;stroke-dasharray:none;stroke-dashoffset:0;stroke-opacity:1"
           d="m 320.52609,778.38092 c -0.57668,0.0508 -1.14636,0.20524 -1.67578,0.47266 l -1.69336,0.85547 c -2.11769,1.06969 -2.76965,3.52564 -1.46289,5.50586 l 5.56836,8.43945 -7.875,6.89063 c -1.84803,1.61683 -1.84803,4.21909 0,5.83593 l 0.95312,0.83399 c 1.84803,1.61684 4.82189,1.61684 6.66992,0 l 5.83399,-5.10352 4.125,6.25196 c 1.30675,1.98021 4.06395,2.71227 6.18164,1.64257 l 1.69336,-0.85547 c 2.11769,-1.06969 2.76965,-3.52564 1.46289,-5.50586 l -5.56836,-8.43945 7.875,-6.89062 c 1.84803,-1.61684 1.84803,-4.2191 0,-5.83594 l -0.95312,-0.83399 c -1.84804,-1.61683 -4.82385,-1.61683 -6.67188,0 l -5.83203,5.10352 -4.125,-6.25195 c -0.98007,-1.48516 -2.77584,-2.26753 -4.50586,-2.11524 z"
           id="path4683"
           inkscape:connector-curvature="0" />
      </g>
      <g
         transform="matrix(0.21127759,0.24737503,-0.24737503,0.21127759,167.97736,574.34326)"
         id="g4689">
        <path
           inkscape:connector-curvature="0"
           id="path4687"
           d="m 320.52609,778.38092 c -0.57668,0.0508 -1.14636,0.20524 -1.67578,0.47266 l -1.69336,0.85547 c -2.11769,1.06969 -2.76965,3.52564 -1.46289,5.50586 l 5.56836,8.43945 -7.875,6.89063 c -1.84803,1.61683 -1.84803,4.21909 0,5.83593 l 0.95312,0.83399 c 1.84803,1.61684 4.82189,1.61684 6.66992,0 l 5.83399,-5.10352 4.125,6.25196 c 1.30675,1.98021 4.06395,2.71227 6.18164,1.64257 l 1.69336,-0.85547 c 2.11769,-1.06969 2.76965,-3.52564 1.46289,-5.50586 l -5.56836,-8.43945 7.875,-6.89062 c 1.84803,-1.61684 1.84803,-4.2191 0,-5.83594 l -0.95312,-0.83399 c -1.84804,-1.61683 -4.82385,-1.61683 -6.67188,0 l -5.83203,5.10352 -4.125,-6.25195 c -0.98007,-1.48516 -2.77584,-2.26753 -4.50586,-2.11524 z"
           style="opacity:1;fill:#ffffff;fill-opacity:1;stroke:none;stroke-width:30;stroke-linecap:round;stroke-linejoin:round;stroke-miterlimit:4;stroke-dasharray:none;stroke-dashoffset:0;stroke-opacity:1" />
      </g>
      <g
         id="g4693"
         transform="matrix(0.45671932,-0.00626167,0.00626167,0.45671932,-142.38365,442.86254)">
        <path
           style="opacity:1;fill:#ffffff;fill-opacity:1;stroke:none;stroke-width:30;stroke-linecap:round;stroke-linejoin:round;stroke-miterlimit:4;stroke-dasharray:none;stroke-dashoffset:0;stroke-opacity:1"
           d="m 320.52609,778.38092 c -0.57668,0.0508 -1.14636,0.20524 -1.67578,0.47266 l -1.69336,0.85547 c -2.11769,1.06969 -2.76965,3.52564 -1.46289,5.50586 l 5.56836,8.43945 -7.875,6.89063 c -1.84803,1.61683 -1.84803,4.21909 0,5.83593 l 0.95312,0.83399 c 1.84803,1.61684 4.82189,1.61684 6.66992,0 l 5.83399,-5.10352 4.125,6.25196 c 1.30675,1.98021 4.06395,2.71227 6.18164,1.64257 l 1.69336,-0.85547 c 2.11769,-1.06969 2.76965,-3.52564 1.46289,-5.50586 l -5.56836,-8.43945 7.875,-6.89062 c 1.84803,-1.61684 1.84803,-4.2191 0,-5.83594 l -0.95312,-0.83399 c -1.84804,-1.61683 -4.82385,-1.61683 -6.67188,0 l -5.83203,5.10352 -4.125,-6.25195 c -0.98007,-1.48516 -2.77584,-2.26753 -4.50586,-2.11524 z"
           id="path4691"
           inkscape:connector-curvature="0" />
      </g>
    </g>
    <g
       id="snowflake"
       transform="translate(0,-6.5625004)">
      <rect
         style="opacity:1;fill:none;fill-opacity:1;stroke:none;stroke-width:0.30000588;stroke-linecap:round;stroke-linejoin:miter;stroke-miterlimit:4;stroke-dasharray:none;stroke-dashoffset:0;stroke-opacity:1"
         id="rect1007"
         width="48.000942"
         height="48.000942"
         x="0"
         y="651.3902"
         ry="0" />
      <g
         transform="matrix(1.0543929,0,0,1.0543929,-1.2610197,-36.71511)"
         id="g4745">
        <rect
           style="opacity:1;fill:#ffffff;fill-opacity:1;stroke:none;stroke-width:0.84594142;stroke-linecap:butt;stroke-linejoin:bevel;stroke-miterlimit:4;stroke-dasharray:none;stroke-dashoffset:0;stroke-opacity:1"
           id="rect1024"
           width="5.9662137"
           height="43.089325"
           x="20.200449"
           y="653.45447"
           ry="2.9831069" />
        <g
           id="g4735"
           transform="translate(0,-0.05611343)">
          <g
             transform="translate(0,-0.66291265)"
             id="g4721">
            <rect
               ry="2.9831069"
               y="474.94293"
               x="-458.59396"
               height="14.252625"
               width="5.9662137"
               id="rect4715"
               style="opacity:1;fill:#ffffff;fill-opacity:1;stroke:none;stroke-width:0.48652244;stroke-linecap:butt;stroke-linejoin:bevel;stroke-miterlimit:4;stroke-dasharray:none;stroke-dashoffset:0;stroke-opacity:1"
               transform="rotate(-45)" />
            <rect
               transform="matrix(-0.70710678,-0.70710678,-0.70710678,0.70710678,0,0)"
               style="opacity:1;fill:#ffffff;fill-opacity:1;stroke:none;stroke-width:0.48652244;stroke-linecap:butt;stroke-linejoin:bevel;stroke-miterlimit:4;stroke-dasharray:none;stroke-dashoffset:0;stroke-opacity:1"
               id="rect4717"
               width="5.9662137"
               height="14.252625"
               x="-491.38046"
               y="442.15643"
               ry="2.9831069" />
          </g>
          <g
             transform="matrix(1,0,0,-1,0,1350.7734)"
             id="g4727">
            <rect
               transform="rotate(-45)"
               style="opacity:1;fill:#ffffff;fill-opacity:1;stroke:none;stroke-width:0.48652244;stroke-linecap:butt;stroke-linejoin:bevel;stroke-miterlimit:4;stroke-dasharray:none;stroke-dashoffset:0;stroke-opacity:1"
               id="rect4723"
               width="5.9662137"
               height="14.252625"
               x="-458.59396"
               y="474.94293"
               ry="2.9831069" />
            <rect
               ry="2.9831069"
               y="442.15643"
               x="-491.38046"
               height="14.252625"
               width="5.9662137"
               id="rect4725"
               style="opacity:1;fill:#ffffff;fill-opacity:1;stroke:none;stroke-width:0.48652244;stroke-linecap:butt;stroke-linejoin:bevel;stroke-miterlimit:4;stroke-dasharray:none;stroke-dashoffset:0;stroke-opacity:1"
               transform="matrix(-0.70710678,-0.70710678,-0.70710678,0.70710678,0,0)" />
          </g>
        </g>
      </g>
      <g
         transform="matrix(0,1.0543929,-1.0543929,0,734.8978,650.55456)"
         id="g4763">
        <rect
           ry="2.9831069"
           y="653.45447"
           x="20.200449"
           height="43.089325"
           width="5.9662137"
           id="rect4747"
           style="opacity:1;fill:#ffffff;fill-opacity:1;stroke:none;stroke-width:0.84594142;stroke-linecap:butt;stroke-linejoin:bevel;stroke-miterlimit:4;stroke-dasharray:none;stroke-dashoffset:0;stroke-opacity:1" />
        <g
           transform="translate(0,-0.05611343)"
           id="g4761">
          <g
             id="g4753"
             transform="translate(0,-0.66291265)">
            <rect
               transform="rotate(-45)"
               style="opacity:1;fill:#ffffff;fill-opacity:1;stroke:none;stroke-width:0.48652244;stroke-linecap:butt;stroke-linejoin:bevel;stroke-miterlimit:4;stroke-dasharray:none;stroke-dashoffset:0;stroke-opacity:1"
               id="rect4749"
               width="5.9662137"
               height="14.252625"
               x="-458.59396"
               y="474.94293"
               ry="2.9831069" />
            <rect
               ry="2.9831069"
               y="442.15643"
               x="-491.38046"
               height="14.252625"
               width="5.9662137"
               id="rect4751"
               style="opacity:1;fill:#ffffff;fill-opacity:1;stroke:none;stroke-width:0.48652244;stroke-linecap:butt;stroke-linejoin:bevel;stroke-miterlimit:4;stroke-dasharray:none;stroke-dashoffset:0;stroke-opacity:1"
               transform="matrix(-0.70710678,-0.70710678,-0.70710678,0.70710678,0,0)" />
          </g>
          <g
             id="g4759"
             transform="matrix(1,0,0,-1,0,1350.7734)">
            <rect
               ry="2.9831069"
               y="474.94293"
               x="-458.59396"
               height="14.252625"
               width="5.9662137"
               id="rect4755"
               style="opacity:1;fill:#ffffff;fill-opacity:1;stroke:none;stroke-width:0.48652244;stroke-linecap:butt;stroke-linejoin:bevel;stroke-miterlimit:4;stroke-dasharray:none;stroke-dashoffset:0;stroke-opacity:1"
               transform="rotate(-45)" />
            <rect
               transform="matrix(-0.70710678,-0.70710678,-0.70710678,0.70710678,0,0)"
               style="opacity:1;fill:#ffffff;fill-opacity:1;stroke:none;stroke-width:0.48652244;stroke-linecap:butt;stroke-linejoin:bevel;stroke-miterlimit:4;stroke-dasharray:none;stroke-dashoffset:0;stroke-opacity:1"
               id="rect4757"
               width="5.9662137"
               height="14.252625"
               x="-491.38046"
               y="442.15643"
               ry="2.9831069" />
          </g>
        </g>
      </g>
    </g>
    <g
       id="grass">
      <rect
         ry="0"
         y="644.8277"
         x="58.313442"
         height="48.000942"
         width="48.000942"
         id="rect1022"
         style="opacity:1;fill:none;fill-opacity:1;stroke:none;stroke-width:0.30000588;stroke-linecap:round;stroke-linejoin:miter;stroke-miterlimit:4;stroke-dasharray:none;stroke-dashoffset:0;stroke-opacity:1" />
      <path
         sodipodi:nodetypes="cscscscscscscscscccsscscscsscc"
         inkscape:connector-curvature="0"
         id="path1084"
         d="m 61.07301,691.12896 c 0,0 1.417743,-10.26345 1.319027,-15.42191 -0.121255,-6.33624 -2.34375,-18.86718 -2.34375,-18.86718 0,0 2.199859,1.06374 2.929688,1.99218 2.887606,3.67342 4.921875,13.125 4.921875,13.125 0,0 -2.707098,-11.4313 -2.460937,-17.22656 0.110585,-2.60345 1.757812,-7.61719 1.757812,-7.61719 0,0 1.13805,5.00817 1.757813,7.5 1.481894,5.95813 4.6875,17.8125 4.6875,17.8125 0,0 2.176056,-6.79209 2.578125,-10.3125 0.505389,-4.42504 -0.234375,-13.35937 -0.234375,-13.35937 0,0 3.486119,5.87716 4.335938,9.14062 1.331859,5.11458 1.054687,15.82032 1.054687,15.82032 0,0 1.235698,-2.51192 1.523438,-3.86719 1.128698,-5.31625 0.703125,-16.28906 0.703125,-16.28906 0,0 4.051923,8.92291 4.6875,13.71093 0.314225,2.36717 -0.46875,7.14844 -0.46875,7.14844 l 3.171387,-6.01318 -0.710449,5.42724 c 0,0 1.543029,-3.44884 1.992187,-5.27343 1.232267,-5.00577 0.05513,-10.52826 1.875001,-15.35157 0.952388,-2.52416 4.570312,-6.67968 4.570312,-6.67968 0,0 -0.532053,5.38409 -0.585937,8.08593 -0.120011,6.0176 0.585937,18.04688 0.585937,18.04688 0,0 0.02446,-7.95938 1.406256,-11.60156 0.92629,-2.44155 4.45312,-6.44532 4.45312,-6.44532 0,0 -1.50912,6.59851 -1.75781,9.96094 -0.31993,4.32571 0.0863,8.67841 0.35156,13.00781 0.27596,4.50425 1.28906,13.47657 1.28906,13.47657 z"
         style="fill:url(#linearGradient1092);fill-opacity:1;stroke:none;stroke-width:0.93750006px;stroke-linecap:butt;stroke-linejoin:miter;stroke-opacity:1" />
    </g>
    <g
       id="sun">
      <rect
         style="opacity:1;fill:none;fill-opacity:1;stroke:none;stroke-width:0.30000588;stroke-linecap:round;stroke-linejoin:miter;stroke-miterlimit:4;stroke-dasharray:none;stroke-dashoffset:0;stroke-opacity:1"
         id="rect1023"
         width="48.000942"
         height="48.000942"
         x="114.19543"
         y="643.70667"
         ry="0" />
      <path
         id="path1050"
         transform="matrix(0.93750005,0,0,0.93750005,0,552.36216)"
         d="m 147.4082,97.966797 -4.40234,7.130863 a 18.488329,18.488329 0 0 1 4.40234,-0.55078 18.488329,18.488329 0 0 1 4.40625,0.55468 z m -17.72461,7.341793 1.92969,8.16016 a 18.488329,18.488329 0 0 1 6.22461,-6.23242 z m 35.45118,0 -8.16211,1.92969 a 18.488329,18.488329 0 0 1 6.23437,6.22461 z m -17.72657,3.11329 a 14.613329,14.613329 0 0 0 -14.61328,14.61328 14.613329,14.613329 0 0 0 14.61328,14.61328 14.613329,14.613329 0 0 0 14.61328,-14.61328 14.613329,14.613329 0 0 0 -14.61328,-14.61328 z m -17.93164,10.20898 -7.13476,4.4043 7.13086,4.40234 a 18.488329,18.488329 0 0 1 -0.55274,-4.40234 18.488329,18.488329 0 0 1 0.55664,-4.4043 z m 35.86719,0 a 18.488329,18.488329 0 0 1 0.55273,4.4043 18.488329,18.488329 0 0 1 -0.55468,4.40625 l 7.13476,-4.40625 z m -2.13867,13.96875 a 18.488329,18.488329 0 0 1 -6.22461,6.23242 l 8.1543,1.92774 z m -31.59375,0.006 -1.92774,8.1543 8.16016,-1.92969 a 18.488329,18.488329 0 0 1 -6.23242,-6.22461 z m 11.39258,8.36133 4.40429,7.13476 4.40235,-7.13086 a 18.488329,18.488329 0 0 1 -4.40235,0.55274 18.488329,18.488329 0 0 1 -4.40429,-0.55664 z"
         style="opacity:1;fill:#ffffff;fill-opacity:1;stroke:none;stroke-width:0.96596211;stroke-linecap:butt;stroke-linejoin:bevel;stroke-miterlimit:4;stroke-dasharray:none;stroke-dashoffset:0;stroke-opacity:1"
         inkscape:connector-curvature="0" />
    </g>
    <g
       id="leaf">
      <rect
         style="opacity:1;fill:none;fill-opacity:1;stroke:none;stroke-width:0.30000588;stroke-linecap:round;stroke-linejoin:miter;stroke-miterlimit:4;stroke-dasharray:none;stroke-dashoffset:0;stroke-opacity:1"
         id="rect1039"
         width="48.000942"
         height="48.000942"
         x="168.40915"
         y="643.8125"
         ry="0" />
      <path
         sodipodi:nodetypes="csccccsscccsccccccscccssccccsc"
         inkscape:connector-curvature="0"
         id="path1056"
         d="m 211.20659,649.016 c 0,0 -4.33765,0.58026 -6.43342,1.18165 -3.1976,0.91757 -6.49795,1.84949 -9.27813,3.67624 -2.36215,1.55208 -5.99577,5.99578 -5.99577,5.99578 0,0 -0.29105,-4.85888 -0.96283,-7.17743 -0.82656,-2.85272 -3.72,-8.09648 -3.72,-8.09648 0,0 -2.85841,3.56094 -4.02636,5.51436 -1.8182,3.04095 -3.63987,6.17269 -4.59529,9.58448 -0.59696,2.13167 -0.65649,6.60848 -0.65649,6.60848 0,0 -1.78704,-1.18846 -2.80093,-1.488 -1.13745,-0.33606 -3.54495,-0.30635 -3.54495,-0.30635 0,0 0.7069,3.58799 1.57552,5.16424 1.47775,2.68159 3.46353,5.23747 5.99578,6.9586 0.63244,0.42985 1.72045,0.79749 2.63136,1.05719 l -8.10195,7.30187 c -1.37928,1.24308 2.69575,5.31811 3.93883,3.93883 l 7.30187,-8.10195 c 0.2597,0.91091 0.62734,1.99892 1.05719,2.63136 1.72113,2.53225 4.27701,4.51803 6.9586,5.99578 1.57625,0.86862 5.16424,1.57552 5.16424,1.57552 0,0 0.0296,-2.4075 -0.30635,-3.54495 -0.29954,-1.01389 -1.488,-2.80093 -1.488,-2.80093 0,0 4.47681,-0.0595 6.60848,-0.65649 3.41179,-0.95542 6.54353,-2.77709 9.58448,-4.59529 1.95342,-1.16795 5.51436,-4.02636 5.51436,-4.02636 0,0 -5.24376,-2.89343 -8.09648,-3.72 -2.31855,-0.67178 -7.17742,-0.96283 -7.17742,-0.96283 0,0 4.44369,-3.63362 5.99577,-5.99577 1.82675,-2.78018 2.75867,-6.08053 3.67624,-9.27813 0.60139,-2.09577 1.18165,-6.43342 1.18165,-6.43342 z"
         style="fill:#ffffff;stroke:none;stroke-width:0.49514174px;stroke-linecap:butt;stroke-linejoin:miter;stroke-opacity:1" />
    </g>
  </g>
</svg>
