<svg xmlns="http://www.w3.org/2000/svg" xmlns:svg="http://www.w3.org/2000/svg" xmlns:xlink="http://www.w3.org/1999/xlink" id="svg8" width="1000" height="618" version="1.1" viewBox="0 0 264.583 163.512"><defs id="defs2"><linearGradient id="linearGradient5044"><stop id="stop5040" offset="0" style="stop-color:#57db84;stop-opacity:1"/><stop style="stop-color:#78e877;stop-opacity:1" id="stop5054" offset=".5"/><stop id="stop5042" offset="1" style="stop-color:#9af66b;stop-opacity:1"/></linearGradient><linearGradient id="linearGradient5046" x1="163.564" x2="134.936" y1="246.2" y2="178.532" gradientUnits="userSpaceOnUse" xlink:href="#linearGradient5044"/><filter id="filter5394" width="1.056" height="1.042" x="-.028" y="-.021" style="color-interpolation-filters:sRGB"><feGaussianBlur id="feGaussianBlur5396" stdDeviation=".686"/></filter><filter id="filter5499" width="1.055" height="1.042" x="-.028" y="-.021" style="color-interpolation-filters:sRGB"><feGaussianBlur id="feGaussianBlur5501" stdDeviation="2.638"/></filter><filter id="filter5584" width="1.043" height="1.054" x="-.022" y="-.027" style="color-interpolation-filters:sRGB"><feGaussianBlur id="feGaussianBlur5586" stdDeviation="1.937"/></filter><filter id="filter5612" width="1.042" height="1.056" x="-.021" y="-.028" style="color-interpolation-filters:sRGB"><feGaussianBlur id="feGaussianBlur5614" stdDeviation=".672"/></filter><clipPath id="clipPath16" clipPathUnits="userSpaceOnUse"><path id="path18" d="M 0,36 36,36 36,0 0,0 0,36 Z"/></clipPath></defs><metadata id="metadata5"/><g id="layer1" transform="translate(0,-133.4875)"><rect id="rect5032" width="30.015" height="30.015" x="0" y="133.488" style="opacity:1;fill:#f4e3d7;fill-opacity:1;stroke:none;stroke-width:.26458332;stroke-miterlimit:4;stroke-dasharray:none;stroke-opacity:1"/><rect id="rect4975" width="264.583" height="163.512" x="0" y="133.488" style="opacity:1;fill:url(#linearGradient5046);fill-opacity:1;stroke:none;stroke-width:.57200783;stroke-miterlimit:4;stroke-dasharray:none;stroke-opacity:1"/><g style="fill:#4c9754;fill-opacity:1;filter:url(#filter5612)" id="g5610" transform="matrix(1.1890396,0,0,1.1890396,-15.04682,-31.651757)"><path style="fill:#4c9754;fill-opacity:1;stroke-width:.38810971" id="path5588" d="m 98.164285,202.36882 v -24.67155 h -4.664788 l -0.932957,1.41671 h 4.181032 v 23.25484 z"/><path style="fill:#4c9754;fill-opacity:1;stroke-width:.38810971" id="path5590" d="m 120.5685,189.82572 q 0,-4.87211 -2.03869,-8.53483 -2.48788,-4.38836 -7.01446,-4.38836 -4.52657,0 -7.01446,4.38836 -2.03868,3.59361 -2.03868,8.53483 0,4.90667 2.03868,8.50029 2.48789,4.38835 7.01446,4.38835 4.56113,0 7.04901,-4.3538 2.00414,-3.55906 2.00414,-8.53484 z m -1.48582,0 q 0,4.7339 -1.90048,7.87831 -2.10779,3.55906 -5.66685,3.55906 -3.83549,0 -5.90873,-4.00826 -1.62404,-3.17897 -1.62404,-7.42911 0,-4.66478 1.90047,-7.91286 2.14235,-3.59362 5.6323,-3.59362 3.9046,0 5.94329,4.00827 1.62404,3.17896 1.62404,7.49821 z"/><path style="fill:#4c9754;fill-opacity:1;stroke-width:.38810971" id="path5592" d="m 126.77931,202.36882 v -24.67155 h -4.66479 l -0.93296,1.41671 h 4.18104 v 23.25484 z"/><path style="fill:#4c9754;fill-opacity:1;stroke-width:.38810971" id="path5594" d="m 149.18352,189.82572 q 0,-4.87211 -2.03869,-8.53483 -2.48788,-4.38836 -7.01445,-4.38836 -4.52658,0 -7.01447,4.38836 -2.03868,3.59361 -2.03868,8.53483 0,4.90667 2.03868,8.50029 2.48789,4.38835 7.01447,4.38835 4.56112,0 7.04901,-4.3538 2.00413,-3.55906 2.00413,-8.53484 z m -1.48582,0 q 0,4.7339 -1.90047,7.87831 -2.10779,3.55906 -5.66685,3.55906 -3.8355,0 -5.90874,-4.00826 -1.62404,-3.17897 -1.62404,-7.42911 0,-4.66478 1.90047,-7.91286 2.14235,-3.59362 5.63231,-3.59362 3.90459,0 5.94328,4.00827 1.62404,3.17896 1.62404,7.49821 z"/><path style="fill:#4c9754;fill-opacity:1;stroke-width:.38810971" id="path5596" d="m 153.93874,197.25483 v -19.55756 h -1.38216 v 19.55756 z m 0.58742,4.00826 q -0.10366,-0.58741 -0.3801,-0.86384 -0.38009,-0.3801 -0.86385,-0.3801 -1.24394,0.20732 -1.24394,1.24394 0,1.24395 1.24394,1.24395 1.24395,-0.20733 1.24395,-1.24395 z"/><path style="fill:#4c9754;fill-opacity:1;stroke-width:.38810971" id="path5598" d="M 104.31489,234.60713 91.460811,221.71849 103.27827,209.93558 h -2.00413 l -11.022717,10.95361 v -10.95361 h -1.416717 v 24.67155 h 1.416717 v -11.71381 l 0.20732,-0.20732 11.886577,11.92113 z"/><path style="fill:#4c9754;fill-opacity:1;stroke-width:.38810971" id="path5600" d="m 108.68382,234.60713 v -25.56996 h -1.38216 v 25.56996 z"/><path style="fill:#4c9754;fill-opacity:1;stroke-width:.38810971" id="path5602" d="m 127.18423,227.489 q 0,-3.10985 -2.14234,-5.2522 -2.14235,-2.14235 -5.21766,-2.14235 -3.10985,0 -5.21765,2.1769 -2.14234,2.14235 -2.14234,5.21765 0,3.10986 2.14234,5.25221 2.1078,2.10779 5.21765,2.10779 3.10987,0 5.25221,-2.14234 2.10779,-2.1078 2.10779,-5.21766 z m -1.38215,0 q 0,2.48789 -1.76226,4.25014 -1.7277,1.72771 -4.21559,1.72771 -2.45333,0 -4.21558,-1.76226 -1.76225,-1.76225 -1.76225,-4.21559 0,-2.41877 1.7968,-4.21558 1.76226,-1.79681 4.18103,-1.79681 2.52245,0 4.25015,1.76226 1.7277,1.72769 1.7277,4.25013 z"/><path style="fill:#4c9754;fill-opacity:1;stroke-width:.38810971" id="path5604" d="m 145.87848,227.489 q 0,-3.10985 -2.14234,-5.2522 -2.14235,-2.14235 -5.21766,-2.14235 -3.10985,0 -5.21765,2.1769 -2.14235,2.14235 -2.14235,5.21765 0,3.10986 2.14235,5.25221 2.1078,2.10779 5.21765,2.10779 3.10986,0 5.25221,-2.14234 2.10779,-2.1078 2.10779,-5.21766 z m -1.38216,0 q 0,2.48789 -1.76225,4.25014 -1.7277,1.72771 -4.21559,1.72771 -2.45333,0 -4.21558,-1.76226 -1.76226,-1.76225 -1.76226,-4.21559 0,-2.41877 1.79681,-4.21558 1.76225,-1.79681 4.18103,-1.79681 2.52244,0 4.25015,1.76226 1.72769,1.72769 1.72769,4.25013 z"/><path style="fill:#4c9754;fill-opacity:1;stroke-width:.38810971" id="path5606" d="m 160.46188,234.60713 v -8.67306 q 0,-2.72976 -1.41671,-4.25014 -1.41671,-1.52037 -4.07737,-1.52037 -3.14441,0 -4.11192,1.90047 v -1.7277 h -1.41672 v 14.2708 h 1.41672 v -8.67306 q 0,-2.03868 1.07117,-3.21352 1.03662,-1.17483 3.04075,-1.17483 4.07737,0 4.07737,4.52657 v 8.53484 z"/><path style="fill:#4c9754;fill-opacity:1;stroke-width:.38810971" id="path5608" d="m 165.3483,216.63905 q -0.27643,-1.14028 -1.14028,-1.14028 -1.14028,0.20732 -1.14028,1.14028 0.0345,0.51831 0.34554,0.8293 0.41465,0.31098 0.79474,0.31098 1.14028,0 1.14028,-1.14028 z m -0.4492,17.96808 v -14.2708 h -1.41671 v 14.2708 z"/></g><path id="path5539" d="m 1110.5547,422.28516 c -2.9395,5.2e-4 -5.8787,0.6533 -8.1309,1.95898 l -46.2793,26.83203 c -0.9207,0.53379 -1.6432,1.13578 -2.1875,1.77539 -2.0068,1.80095 -3.5727,4.79825 -3.8574,7.42774 -0.2351,0.6606 -0.3675,1.43956 -0.3613,2.34375 l 0.3828,55.83203 c 0.029,4.31094 3.0232,9.57503 6.7129,11.80469 l 48.7363,29.45117 c 0.8126,0.49105 1.5861,0.78242 2.3027,0.9082 2.1829,0.86434 4.5388,0.97879 6.3809,-0.16992 l 29.8672,-18.625 0.074,10.83984 c 0.029,4.31095 3.0232,9.57503 6.7129,11.80469 l 48.7363,29.45117 c 0.8126,0.49105 1.5861,0.78242 2.3028,0.9082 2.1829,0.86435 4.5387,0.9788 6.3808,-0.16992 l 48.4278,-30.19922 c 3.7748,-2.354 6.8376,-7.83064 6.8671,-12.27929 l 0.3829,-57.61328 c 0.018,-2.60362 -1.0407,-5.5421 -2.8086,-7.53125 -0.5478,-0.65402 -1.2811,-1.27017 -2.2207,-1.81446 l -46.2149,-26.77148 c -4.5052,-2.60974 -11.7594,-2.60745 -16.2637,0.004 l -26.6562,15.45313 0.09,-13.54883 c 0.018,-2.60362 -1.0407,-5.54209 -2.8086,-7.53125 -0.113,-0.13504 -0.2354,-0.2671 -0.3652,-0.39844 -0.1884,-0.19063 -0.3955,-0.37512 -0.6191,-0.55664 -0.3685,-0.29911 -0.7723,-0.58863 -1.2364,-0.85742 l -46.2148,-26.77344 c -2.2526,-1.30487 -5.1934,-1.9556 -8.1328,-1.95507 z" transform="matrix(0.26458333,0,0,0.26458333,-83.406423,137.04487)" style="fill:#4c9754;fill-opacity:.27840911;stroke-width:.64079821;filter:url(#filter5584)"/><path id="path5460" d="m -337.18359,156.49805 c -2.93945,5.2e-4 -5.87874,0.6533 -8.13086,1.95898 l -46.28125,26.83203 c -0.92345,0.53537 -1.64667,1.13951 -2.19141,1.78125 -2.00346,1.80114 -3.56655,4.79357 -3.85156,7.41992 -0.23551,0.66101 -0.36752,1.44257 -0.36133,2.34766 l 0.38281,55.83008 c 0.0295,4.31094 3.02322,9.57698 6.71289,11.80664 l 2.97071,1.79492 -6.34961,3.68164 c -0.92446,0.53596 -1.64844,1.14067 -2.19336,1.78321 -2.00416,1.80266 -3.56835,4.79683 -3.85156,7.42382 -0.23431,0.65993 -0.36556,1.43911 -0.35938,2.3418 l 0.38281,55.83008 c 0.0217,3.17282 1.65159,6.85851 3.98047,9.47461 -0.055,0.0601 -0.0988,0.12278 -0.15039,0.18359 -2.00497,1.80249 -3.57022,4.79804 -3.85351,7.42578 -0.23417,0.6598 -0.36556,1.43939 -0.35938,2.3418 l 0.38281,55.83008 c 0.0295,4.31094 3.02322,9.57698 6.71289,11.80664 l 48.73633,29.45117 c 0.81298,0.49128 1.5858,0.78057 2.30274,0.90625 2.18289,0.86434 4.53681,0.98075 6.3789,-0.16797 l 48.42969,-30.20117 c 3.77489,-2.354 6.83768,-7.83064 6.86719,-12.2793 l 0.0781,-11.83203 44.33399,26.79102 c 0.81154,0.49041 1.58294,0.78213 2.29882,0.9082 2.18347,0.86509 4.54015,0.97917 6.38282,-0.16992 l 48.42968,-30.19922 c 3.7749,-2.35404 6.83768,-7.83068 6.86719,-12.2793 l 0.38086,-57.61328 c 0.0173,-2.60425 -1.04006,-5.54403 -2.80859,-7.5332 -0.11256,-0.13431 -0.2342,-0.26584 -0.36328,-0.39649 -0.004,-0.004 -0.008,-0.006 -0.0117,-0.01 -0.49716,-0.50101 -1.10312,-0.97527 -1.84375,-1.4043 l -46.2168,-26.77344 c -4.50518,-2.60974 -11.75747,-2.60745 -16.26172,0.004 l -41.125,23.8418 0.24024,-36.20313 c 0.0173,-2.6068 -1.04281,-5.54787 -2.81446,-7.53711 -0.10589,-0.12602 -0.21938,-0.25025 -0.33984,-0.37304 -0.0144,-0.0144 -0.0285,-0.0287 -0.043,-0.043 -0.49474,-0.49573 -1.09645,-0.96566 -1.83008,-1.39063 l -4.26953,-2.47265 4.73633,-2.95313 c 3.77489,-2.354 6.83768,-7.83064 6.86719,-12.2793 l 0.38086,-57.61328 c 0.0172,-2.59911 -1.03663,-5.53052 -2.79883,-7.51953 -0.11345,-0.13605 -0.23486,-0.27004 -0.36524,-0.40234 -0.003,-0.003 -0.005,-0.005 -0.008,-0.008 -0.004,-0.004 -0.008,-0.006 -0.0117,-0.01 -0.49695,-0.50055 -1.10372,-0.97562 -1.84375,-1.4043 l -46.21484,-26.77344 c -2.25259,-1.30487 -5.19336,-1.9556 -8.13281,-1.95507 z" transform="matrix(0.26458333,0,0,0.26458333,113.24254,138.4561)" style="fill:#007851;fill-opacity:.23170734;stroke-width:.64079821;filter:url(#filter5499)"/><path id="path5351" d="m 215.70338,141.46771 c -0.77771,1.4e-4 -1.55593,0.17286 -2.1518,0.51832 l -12.24473,7.0993 c -0.24432,0.14165 -0.43566,0.3015 -0.57981,0.47129 -0.53052,0.47666 -0.94432,1.26894 -1.01957,1.96422 -0.0621,0.17473 -0.0972,0.38102 -0.0956,0.62012 l 0.10129,14.77171 c 0.008,1.1406 0.79989,2.53391 1.77612,3.12384 l 3.75893,2.2717 -2.87475,1.66656 c -0.24434,0.14165 -0.43569,0.3015 -0.57981,0.47129 -0.53009,0.47655 -0.94419,1.2683 -1.01959,1.96319 -0.0623,0.17488 -0.0967,0.38171 -0.0951,0.62115 l 0.10076,14.77171 c 0.008,1.1406 0.79988,2.53391 1.77612,3.12384 l 12.89484,7.79229 c 0.21497,0.12992 0.41962,0.2065 0.60925,0.23977 0.57759,0.22873 1.20087,0.25951 1.68825,-0.0444 l 2.88976,-1.80196 0.0532,7.75715 c 0.008,1.14061 0.79989,2.53391 1.77612,3.12384 l 12.89482,7.79229 c 0.215,0.12993 0.41965,0.2065 0.60925,0.23978 0.57759,0.22873 1.20087,0.25951 1.68828,-0.0444 l 12.81316,-7.99021 c 0.99878,-0.62284 1.80915,-2.07187 1.81695,-3.2489 l 0.10128,-15.24351 c 0.005,-0.68954 -0.27606,-1.46788 -0.74464,-1.99419 -0.0294,-0.0351 -0.0614,-0.0703 -0.0951,-0.10439 0,0 -5e-4,-5.2e-4 -5e-4,-5.2e-4 -0.13187,-0.13326 -0.293,-0.25956 -0.48991,-0.37362 l -4.75631,-2.75487 9.85729,-6.14743 c 0.99878,-0.62284 1.80915,-2.07185 1.81695,-3.24889 l 0.10128,-15.24352 c 0.005,-0.68954 -0.27609,-1.46736 -0.74467,-1.99367 -0.0295,-0.0352 -0.0612,-0.0701 -0.0951,-0.10439 -9.8e-4,-9.6e-4 -0.002,-0.002 -0.003,-0.003 -0.13147,-0.13244 -0.29202,-0.25814 -0.48782,-0.37156 l -12.22766,-7.08329 c -1.192,-0.69049 -3.11137,-0.6904 -4.3031,5.2e-4 l -8.85683,5.13509 0.0511,-7.66878 c 0.005,-0.68889 -0.27535,-1.46635 -0.74311,-1.99265 -0.0299,-0.0357 -0.0623,-0.0707 -0.0966,-0.10542 -0.13197,-0.13355 -0.29313,-0.26038 -0.4904,-0.37465 l -12.2282,-7.08329 c -0.596,-0.34525 -1.37355,-0.51794 -2.1513,-0.5178 z m 16.72146,43.23716 0.38655,0.23409 -0.38965,0.22583 z" style="fill:#09a83d;fill-opacity:.35975611;stroke-width:.16954452;filter:url(#filter5394)"/><g id="g5458"><path id="path4549" d="m 39.243297,182.35774 -27.769477,0.19588 c -1.17703,0.008 -2.3919204,2.2218 -1.8169322,3.24887 l 13.6984072,24.46863 c 0.574986,1.02707 2.145488,1.80222 3.144263,1.17938 l 12.813389,-7.9904 c 0.998774,-0.62283 1.809125,-2.07182 1.816933,-3.24886 l 0.101101,-15.24359 c 0.0078,-1.17704 -0.810652,-2.61821 -1.987684,-2.60991 z" style="fill:#00aad4;stroke-width:.16954453"/><rect id="rect4551" width="19.184" height="18.89" x="9.574" y="178.561" ry="2.059" transform="matrix(0.85586624,0.51719724,0.00684404,0.99997658,0,0)" style="fill:#0cf;stroke-width:.16954455"/><rect id="rect4553" width="19.105" height="19.127" x="188.413" y="158.952" ry="2.487" transform="matrix(0.86530323,0.50124875,-0.86512317,0.50155947,0,0)" style="fill:#5df;stroke-width:.16954455"/><path id="path4589" d="M 38.532177,204.75801 10.7627,204.95389 c -1.1770304,0.008 -2.3919204,2.2218 -1.8169322,3.24886 l 13.6984072,24.46864 c 0.574986,1.02706 2.145488,1.80222 3.144263,1.17938 l 12.813389,-7.9904 c 0.998774,-0.62283 1.809125,-2.07183 1.816933,-3.24886 l 0.101101,-15.24359 c 0.0078,-1.17704 -0.810652,-2.61821 -1.987684,-2.60991 z" style="fill:#00aad4;stroke-width:.16954453"/><rect id="rect4591" width="19.184" height="18.89" x="8.56" y="201.486" ry="2.059" transform="matrix(0.85586624,0.51719724,0.00684404,0.99997658,0,0)" style="fill:#0cf;stroke-width:.16954455"/><rect id="rect4593" width="19.105" height="19.127" x="210.337" y="181.703" ry="2.487" transform="matrix(0.86530323,0.50124875,-0.86512317,0.50155947,0,0)" style="fill:#5df;stroke-width:.16954455"/><path id="path4599" d="m 67.210507,217.58343 -27.769477,0.19588 c -1.17703,0.008 -2.39192,2.2218 -1.816932,3.24886 l 13.698407,24.46863 c 0.574986,1.02707 2.145488,1.80223 3.144263,1.17939 l 12.813389,-7.9904 c 0.998774,-0.62284 1.809125,-2.07183 1.816933,-3.24886 l 0.101101,-15.2436 c 0.0078,-1.17703 -0.810652,-2.61821 -1.987684,-2.6099 z" style="fill:#00aad4;stroke-width:.16954453"/><rect id="rect4601" width="19.184" height="18.89" x="42.104" y="196.963" ry="2.059" transform="matrix(0.85586624,0.51719724,0.00684404,0.99997658,0,0)" style="fill:#0cf;stroke-width:.16954455"/><rect id="rect4603" width="19.105" height="19.127" x="239.703" y="177.926" ry="2.487" transform="matrix(0.86530323,0.50124875,-0.86512317,0.50155947,0,0)" style="fill:#5df;stroke-width:.16954455"/><path id="path4609" d="M 38.532177,224.66935 10.7627,224.86523 c -1.1770304,0.008 -2.3919204,2.2218 -1.8169322,3.24887 l 13.6984072,24.46863 c 0.574986,1.02707 2.145488,1.80222 3.144263,1.17939 l 12.813389,-7.99041 c 0.998774,-0.62283 1.809125,-2.07182 1.816933,-3.24886 l 0.101101,-15.24359 c 0.0078,-1.17703 -0.810652,-2.61821 -1.987684,-2.60991 z" style="fill:#00aad4;stroke-width:.16954453"/><rect id="rect4611" width="19.184" height="18.89" x="8.4" y="221.481" ry="2.059" transform="matrix(0.85586624,0.51719724,0.00684404,0.99997658,0,0)" style="fill:#0cf;stroke-width:.16954455"/><rect id="rect4613" width="19.105" height="19.127" x="230.19" y="201.56" ry="2.487" transform="matrix(0.86530323,0.50124875,-0.86512317,0.50155947,0,0)" style="fill:#5df;stroke-width:.16954455"/></g><g id="g5349"><path id="path4559" d="m 226.05266,144.40785 -27.76948,0.19588 c -1.17703,0.008 -2.39192,2.2218 -1.81693,3.24887 l 13.6984,24.46863 c 0.57499,1.02707 2.14549,1.80222 3.14427,1.17938 l 12.81339,-7.9904 c 0.99877,-0.62283 1.80912,-2.07182 1.81693,-3.24886 l 0.1011,-15.24359 c 0.008,-1.17704 -0.81065,-2.61821 -1.98768,-2.60991 z" style="fill:#e67e22;stroke-width:.16954453"/><rect id="rect4561" width="19.184" height="18.89" x="229.054" y="27.093" ry="2.059" transform="matrix(0.85586624,0.51719724,0.00684404,0.99997658,0,0)" style="fill:#ffa522;stroke-width:.16954455"/><rect id="rect4563" width="19.105" height="19.127" x="258.562" y="13.182" ry="2.487" transform="matrix(0.86530323,0.50124875,-0.86512317,0.50155947,0,0)" style="fill:#ffc647;stroke-width:.16954455"/><path id="path4569" d="m 252.71967,156.49689 -27.76948,0.19588 c -1.17703,0.008 -2.39192,2.22179 -1.81693,3.24886 l 13.6984,24.46863 c 0.57499,1.02707 2.14549,1.80223 3.14427,1.17939 l 12.81339,-7.9904 c 0.99877,-0.62284 1.80912,-2.07183 1.81693,-3.24887 l 0.1011,-15.24359 c 0.008,-1.17703 -0.81065,-2.61821 -1.98768,-2.6099 z" style="fill:#e67e22;stroke-width:.16954453"/><rect id="rect4571" width="19.184" height="18.89" x="260.245" y="23.05" ry="2.059" transform="matrix(0.85586624,0.51719724,0.00684404,0.99997658,0,0)" style="fill:#ffa522;stroke-width:.16954455"/><rect id="rect4573" width="19.105" height="19.127" x="286.031" y="9.833" ry="2.487" transform="matrix(0.86530323,0.50124875,-0.86512317,0.50155947,0,0)" style="fill:#ffc647;stroke-width:.16954455"/><path id="path4579" d="m 227.11936,169.29703 -27.76948,0.19588 c -1.17703,0.008 -2.39192,2.2218 -1.81693,3.24887 l 13.6984,24.46863 c 0.57499,1.02707 2.14549,1.80223 3.14427,1.17939 l 12.81339,-7.99041 c 0.99877,-0.62283 1.80912,-2.07182 1.81693,-3.24886 l 0.1011,-15.24359 c 0.008,-1.17703 -0.81065,-2.61821 -1.98768,-2.60991 z" style="fill:#e67e22;stroke-width:.16954453"/><rect id="rect4581" width="19.184" height="18.89" x="230.106" y="51.439" ry="2.059" transform="matrix(0.85586624,0.51719724,0.00684404,0.99997658,0,0)" style="fill:#ffa522;stroke-width:.16954455"/><rect id="rect4583" width="19.105" height="19.127" x="283.996" y="37.388" ry="2.487" transform="matrix(0.86530323,0.50124875,-0.86512317,0.50155947,0,0)" style="fill:#ffc647;stroke-width:.16954455"/><path id="path4619" d="m 247.03071,186.36391 -27.76948,0.19588 c -1.17703,0.008 -2.39192,2.2218 -1.81693,3.24886 l 13.6984,24.46863 c 0.57499,1.02707 2.14549,1.80223 3.14427,1.17939 l 12.81339,-7.9904 c 0.99877,-0.62284 1.80912,-2.07183 1.81693,-3.24886 l 0.1011,-15.2436 c 0.008,-1.17703 -0.81065,-2.61821 -1.98768,-2.6099 z" style="fill:#e67e22;stroke-width:.16954453"/><rect id="rect4621" width="19.184" height="18.89" x="253.33" y="56.494" ry="2.059" transform="matrix(0.85586624,0.51719724,0.00684404,0.99997658,0,0)" style="fill:#ffa522;stroke-width:.16954455"/><rect id="rect4623" width="19.105" height="19.127" x="312.523" y="42.906" ry="2.487" transform="matrix(0.86530323,0.50124875,-0.86512317,0.50155947,0,0)" style="fill:#ffc647;stroke-width:.16954455"/></g><g id="g5537"><path id="path4629" d="m 223.00396,252.68048 -27.76948,0.19588 c -1.17703,0.008 -2.39192,2.2218 -1.81693,3.24887 l 13.6984,24.46863 c 0.57499,1.02707 2.14549,1.80222 3.14427,1.17939 l 12.81339,-7.99041 c 0.99877,-0.62283 1.80912,-2.07182 1.81693,-3.24886 l 0.1011,-15.24359 c 0.008,-1.17703 -0.81065,-2.61821 -1.98768,-2.60991 z" style="fill:#d80073;stroke-width:.16954453"/><rect id="rect4631" width="19.184" height="18.89" x="224.608" y="137.668" ry="2.059" transform="matrix(0.85586624,0.51719724,0.00684404,0.99997658,0,0)" style="fill:#e8338b;stroke-width:.16954455"/><rect id="rect4633" width="19.105" height="19.127" x="364.758" y="122.924" ry="2.487" transform="matrix(0.86530323,0.50124875,-0.86512317,0.50155947,0,0)" style="fill:#e85bbe;stroke-width:.16954455"/><path id="path4639" d="m 247.89442,261.73156 -27.76948,0.19588 c -1.17703,0.008 -2.39192,2.2218 -1.81693,3.24887 l 13.6984,24.46863 c 0.57499,1.02707 2.14549,1.80222 3.14427,1.17939 l 12.81339,-7.99041 c 0.99877,-0.62283 1.80912,-2.07182 1.81693,-3.24886 l 0.1011,-15.24359 c 0.008,-1.17703 -0.81065,-2.61821 -1.98768,-2.60991 z" style="fill:#d80073;stroke-width:.16954453"/><rect id="rect4641" width="19.184" height="18.89" x="253.738" y="131.653" ry="2.059" transform="matrix(0.85586624,0.51719724,0.00684404,0.99997658,0,0)" style="fill:#e8338b;stroke-width:.16954455"/><rect id="rect4643" width="19.105" height="19.127" x="388.171" y="117.571" ry="2.487" transform="matrix(0.86530323,0.50124875,-0.86512317,0.50155947,0,0)" style="fill:#e85bbe;stroke-width:.16954455"/></g><g id="g5018" transform="matrix(1.1890396,0,0,1.1890396,-15.809694,-32.756949)"><path id="path4647" d="m 98.164285,202.36882 v -24.67155 h -4.664788 l -0.932957,1.41671 h 4.181032 v 23.25484 z" style="stroke-width:.38810971"/><path id="path4649" d="m 120.5685,189.82572 q 0,-4.87211 -2.03869,-8.53483 -2.48788,-4.38836 -7.01446,-4.38836 -4.52657,0 -7.01446,4.38836 -2.03868,3.59361 -2.03868,8.53483 0,4.90667 2.03868,8.50029 2.48789,4.38835 7.01446,4.38835 4.56113,0 7.04901,-4.3538 2.00414,-3.55906 2.00414,-8.53484 z m -1.48582,0 q 0,4.7339 -1.90048,7.87831 -2.10779,3.55906 -5.66685,3.55906 -3.83549,0 -5.90873,-4.00826 -1.62404,-3.17897 -1.62404,-7.42911 0,-4.66478 1.90047,-7.91286 2.14235,-3.59362 5.6323,-3.59362 3.9046,0 5.94329,4.00827 1.62404,3.17896 1.62404,7.49821 z" style="stroke-width:.38810971"/><path id="path4651" d="m 126.77931,202.36882 v -24.67155 h -4.66479 l -0.93296,1.41671 h 4.18104 v 23.25484 z" style="stroke-width:.38810971"/><path id="path4653" d="m 149.18352,189.82572 q 0,-4.87211 -2.03869,-8.53483 -2.48788,-4.38836 -7.01445,-4.38836 -4.52658,0 -7.01447,4.38836 -2.03868,3.59361 -2.03868,8.53483 0,4.90667 2.03868,8.50029 2.48789,4.38835 7.01447,4.38835 4.56112,0 7.04901,-4.3538 2.00413,-3.55906 2.00413,-8.53484 z m -1.48582,0 q 0,4.7339 -1.90047,7.87831 -2.10779,3.55906 -5.66685,3.55906 -3.8355,0 -5.90874,-4.00826 -1.62404,-3.17897 -1.62404,-7.42911 0,-4.66478 1.90047,-7.91286 2.14235,-3.59362 5.63231,-3.59362 3.90459,0 5.94328,4.00827 1.62404,3.17896 1.62404,7.49821 z" style="stroke-width:.38810971"/><path id="path4655" d="m 153.93874,197.25483 v -19.55756 h -1.38216 v 19.55756 z m 0.58742,4.00826 q -0.10366,-0.58741 -0.3801,-0.86384 -0.38009,-0.3801 -0.86385,-0.3801 -1.24394,0.20732 -1.24394,1.24394 0,1.24395 1.24394,1.24395 1.24395,-0.20733 1.24395,-1.24395 z" style="stroke-width:.38810971"/><path id="path4657" d="M 104.31489,234.60713 91.460811,221.71849 103.27827,209.93558 h -2.00413 l -11.022717,10.95361 v -10.95361 h -1.416717 v 24.67155 h 1.416717 v -11.71381 l 0.20732,-0.20732 11.886577,11.92113 z" style="stroke-width:.38810971"/><path id="path4659" d="m 108.68382,234.60713 v -25.56996 h -1.38216 v 25.56996 z" style="stroke-width:.38810971"/><path id="path4661" d="m 127.18423,227.489 q 0,-3.10985 -2.14234,-5.2522 -2.14235,-2.14235 -5.21766,-2.14235 -3.10985,0 -5.21765,2.1769 -2.14234,2.14235 -2.14234,5.21765 0,3.10986 2.14234,5.25221 2.1078,2.10779 5.21765,2.10779 3.10987,0 5.25221,-2.14234 2.10779,-2.1078 2.10779,-5.21766 z m -1.38215,0 q 0,2.48789 -1.76226,4.25014 -1.7277,1.72771 -4.21559,1.72771 -2.45333,0 -4.21558,-1.76226 -1.76225,-1.76225 -1.76225,-4.21559 0,-2.41877 1.7968,-4.21558 1.76226,-1.79681 4.18103,-1.79681 2.52245,0 4.25015,1.76226 1.7277,1.72769 1.7277,4.25013 z" style="stroke-width:.38810971"/><path id="path4663" d="m 145.87848,227.489 q 0,-3.10985 -2.14234,-5.2522 -2.14235,-2.14235 -5.21766,-2.14235 -3.10985,0 -5.21765,2.1769 -2.14235,2.14235 -2.14235,5.21765 0,3.10986 2.14235,5.25221 2.1078,2.10779 5.21765,2.10779 3.10986,0 5.25221,-2.14234 2.10779,-2.1078 2.10779,-5.21766 z m -1.38216,0 q 0,2.48789 -1.76225,4.25014 -1.7277,1.72771 -4.21559,1.72771 -2.45333,0 -4.21558,-1.76226 -1.76226,-1.76225 -1.76226,-4.21559 0,-2.41877 1.79681,-4.21558 1.76225,-1.79681 4.18103,-1.79681 2.52244,0 4.25015,1.76226 1.72769,1.72769 1.72769,4.25013 z" style="stroke-width:.38810971"/><path id="path4665" d="m 160.46188,234.60713 v -8.67306 q 0,-2.72976 -1.41671,-4.25014 -1.41671,-1.52037 -4.07737,-1.52037 -3.14441,0 -4.11192,1.90047 v -1.7277 h -1.41672 v 14.2708 h 1.41672 v -8.67306 q 0,-2.03868 1.07117,-3.21352 1.03662,-1.17483 3.04075,-1.17483 4.07737,0 4.07737,4.52657 v 8.53484 z" style="stroke-width:.38810971"/><path id="path4667" d="m 165.3483,216.63905 q -0.27643,-1.14028 -1.14028,-1.14028 -1.14028,0.20732 -1.14028,1.14028 0.0345,0.51831 0.34554,0.8293 0.41465,0.31098 0.79474,0.31098 1.14028,0 1.14028,-1.14028 z m -0.4492,17.96808 v -14.2708 h -1.41671 v 14.2708 z" style="stroke-width:.38810971"/></g><circle id="path4574" cx="179.488" cy="273.967" r="9.58" style="opacity:1;fill:#ffd42a;fill-opacity:1;stroke:none;stroke-width:.73409218;stroke-linecap:square;stroke-linejoin:bevel;stroke-miterlimit:4;stroke-dasharray:none;stroke-opacity:1"/><path id="path4705" d="m 174.35525,276.37967 c 0.17906,3.50344 7.80153,5.08569 9.34097,1.97537" style="fill:none;stroke:#1a1a1a;stroke-width:.96368474;stroke-linecap:round;stroke-opacity:1"/><ellipse id="path4737" cx="183.117" cy="271.02" rx="1.449" ry="2.1" style="opacity:1;fill:#1a1a1a;fill-opacity:1;stroke:none;stroke-width:1.72248816;stroke-linecap:round;stroke-linejoin:bevel;stroke-miterlimit:4;stroke-dasharray:none;stroke-opacity:1;paint-order:normal"/><path id="ellipse4841" d="m 175.53715,269.69856 c -1.21018,0 -2.90702,1.01416 -2.11939,2.22951 0.84934,-1.58658 3.05398,-1.42261 4.22994,-0.0381 0.60896,-1.21621 -0.88092,-2.19143 -2.11055,-2.19143 z" style="opacity:1;fill:#1a1a1a;fill-opacity:1;stroke:none;stroke-width:2.09027147;stroke-linecap:round;stroke-linejoin:bevel;stroke-miterlimit:4;stroke-dasharray:none;stroke-opacity:1;paint-order:normal"/></g></svg>